%TF.GenerationSoftware,KiCad,Pcbnew,9.0.1*%
%TF.CreationDate,2025-09-03T21:59:16+02:00*%
%TF.ProjectId,cartouche v1,63617274-6f75-4636-9865-2076312e6b69,rev?*%
%TF.SameCoordinates,Original*%
%TF.FileFunction,Copper,L2,Inr*%
%TF.FilePolarity,Positive*%
%FSLAX46Y46*%
G04 Gerber Fmt 4.6, Leading zero omitted, Abs format (unit mm)*
G04 Created by KiCad (PCBNEW 9.0.1) date 2025-09-03 21:59:16*
%MOMM*%
%LPD*%
G01*
G04 APERTURE LIST*
%TA.AperFunction,ComponentPad*%
%ADD10C,2.000000*%
%TD*%
%TA.AperFunction,ComponentPad*%
%ADD11R,1.700000X1.700000*%
%TD*%
%TA.AperFunction,ComponentPad*%
%ADD12C,1.700000*%
%TD*%
%TA.AperFunction,HeatsinkPad*%
%ADD13O,2.100000X1.000000*%
%TD*%
%TA.AperFunction,HeatsinkPad*%
%ADD14O,1.800000X1.000000*%
%TD*%
%TA.AperFunction,ViaPad*%
%ADD15C,0.600000*%
%TD*%
%TA.AperFunction,ViaPad*%
%ADD16C,0.300000*%
%TD*%
%TA.AperFunction,Conductor*%
%ADD17C,0.200000*%
%TD*%
%TA.AperFunction,Conductor*%
%ADD18C,1.000000*%
%TD*%
G04 APERTURE END LIST*
D10*
%TO.N,Net-(R3-Pad2)*%
%TO.C,S1*%
X147024999Y-114150000D03*
X153524999Y-114150000D03*
%TO.N,GND*%
X147024999Y-118650000D03*
X153524999Y-118650000D03*
%TD*%
D11*
%TO.N,GND*%
%TO.C,U4*%
X159164999Y-81300000D03*
D12*
%TO.N,Vout3v3*%
X156624999Y-81300000D03*
%TO.N,SPI SCK*%
X154084999Y-81300000D03*
%TO.N,SPI MOSI*%
X151544999Y-81300000D03*
%TO.N,Net-(U4-RES)*%
X149004999Y-81300000D03*
%TO.N,\u00C9cran D{slash}C*%
X146464999Y-81300000D03*
%TO.N,Net-(U4-CS)*%
X143924999Y-81300000D03*
%TO.N,Vout3v3*%
X141384999Y-81300000D03*
%TD*%
D11*
%TO.N,GND*%
%TO.C,J2*%
X156624999Y-123100000D03*
D12*
%TO.N,CS Console*%
X154084999Y-123100000D03*
%TO.N,SPI MOSI*%
X151544999Y-123100000D03*
%TO.N,SPI MISO*%
X149004999Y-123100000D03*
%TO.N,SPI SCK*%
X146464999Y-123100000D03*
%TO.N,+5V*%
X143924999Y-123100000D03*
%TD*%
D13*
%TO.N,GND*%
%TO.C,USB-C*%
X168485000Y-111370000D03*
D14*
X172665000Y-111370000D03*
D13*
X168485000Y-102730000D03*
D14*
X172665000Y-102730000D03*
%TD*%
D15*
%TO.N,Net-(U_TC4056A1-STDBY)*%
X137400000Y-82202767D03*
%TO.N,Net-(U_TC4056A1-CHRG)*%
X138800000Y-82200000D03*
%TO.N,Net-(Q1-S)*%
X166150000Y-89950000D03*
X171050000Y-93550000D03*
%TO.N,Vout3v3*%
X168300000Y-82400000D03*
X172800000Y-82360000D03*
%TO.N,+5V*%
X166050000Y-121250000D03*
%TO.N,3v3*%
X134612500Y-116387500D03*
X137900000Y-119200000D03*
%TO.N,GND*%
X165500000Y-125300000D03*
X142087500Y-90850000D03*
D16*
X162200000Y-107500000D03*
D15*
%TO.N,OUT+*%
X141600000Y-106400000D03*
X165200000Y-91875000D03*
X163700000Y-116900000D03*
X170800000Y-125300000D03*
%TO.N,+5V*%
X137200000Y-80900000D03*
X169700000Y-115200000D03*
%TO.N,Vout3v3*%
X142100000Y-93050000D03*
X130600000Y-80300000D03*
X134225000Y-82900000D03*
X144600000Y-98400000D03*
%TO.N,Vin*%
X135400000Y-123200000D03*
X164250000Y-90000000D03*
X167800000Y-92100000D03*
%TO.N,Net-(U_polux1-VAUX)*%
X136700000Y-117800000D03*
X137600000Y-115600000D03*
%TO.N,SPI MOSI*%
X142100000Y-94200000D03*
X154700000Y-110500000D03*
%TO.N,SPI MISO*%
X142087500Y-89750000D03*
X156500000Y-110400000D03*
%TO.N,SPI SCK*%
X142087500Y-91950000D03*
X155700000Y-109000000D03*
%TO.N,CS Console*%
X154100000Y-108900000D03*
%TO.N,LEDrgb*%
X160000000Y-103900000D03*
X135900000Y-80700000D03*
%TO.N,Net-(Q3-G2)*%
X167500000Y-116400000D03*
X174400000Y-118362500D03*
%TO.N,Net-(Q3-G1)*%
X163200000Y-122800000D03*
X172500000Y-118362500D03*
%TO.N,Net-(U_TC4056A1-CHRG)*%
X163700000Y-119356348D03*
%TO.N,Net-(U_TC4056A1-STDBY)*%
X163678652Y-118065000D03*
%TO.N,CS_sdcard*%
X145300000Y-96400000D03*
X152500000Y-109600000D03*
%TO.N,CD*%
X157300000Y-109700000D03*
X145200000Y-87600000D03*
%TO.N,Boot Mode Select*%
X132725000Y-83550000D03*
X158100000Y-109600000D03*
%TO.N,Net-(U4-CS)*%
X143900000Y-83700000D03*
%TO.N,CS \u00C9cran*%
X147800000Y-84900000D03*
X150100000Y-108800000D03*
%TO.N,Net-(U4-RES)*%
X144900000Y-106500000D03*
X150400000Y-106400000D03*
%TO.N,SW-reset*%
X129615472Y-84755913D03*
X146500000Y-107300000D03*
%TO.N,SW-1*%
X160000000Y-104700000D03*
X157300000Y-114200000D03*
%TO.N,Net-(U3-CD)*%
X142087500Y-87550000D03*
%TO.N,\u00C9cran D{slash}C*%
X149300000Y-108800000D03*
X149300000Y-108800000D03*
X149300000Y-108800000D03*
%TO.N,OUT+*%
X161900000Y-109100000D03*
%TO.N,+5V*%
X165750000Y-102050000D03*
%TD*%
D17*
%TO.N,Boot Mode Select*%
X153649057Y-110201000D02*
X155451057Y-108399000D01*
X156899000Y-108399000D02*
X158100000Y-109600000D01*
X148099000Y-104528715D02*
X148099000Y-109166100D01*
X132725000Y-83550000D02*
X132025000Y-84250000D01*
X155451057Y-108399000D02*
X156899000Y-108399000D01*
X132025000Y-84250000D02*
X132025000Y-88454715D01*
X132025000Y-88454715D02*
X148099000Y-104528715D01*
X148099000Y-109166100D02*
X149133900Y-110201000D01*
X149133900Y-110201000D02*
X153649057Y-110201000D01*
D18*
%TO.N,+5V*%
X169700000Y-117600000D02*
X166050000Y-121250000D01*
X169700000Y-115200000D02*
X169700000Y-117600000D01*
D17*
%TO.N,CS \u00C9cran*%
X147800000Y-84900000D02*
X148500000Y-85600000D01*
X148500000Y-85600000D02*
X148500000Y-109000000D01*
X148500000Y-109000000D02*
X149200000Y-109700000D01*
X149200000Y-109700000D02*
X149249943Y-109700000D01*
X149249943Y-109700000D02*
X150100000Y-108849943D01*
X150100000Y-108849943D02*
X150100000Y-108800000D01*
%TO.N,OUT+*%
X170800000Y-125300000D02*
X167901000Y-128199000D01*
X143100000Y-128199000D02*
X141600000Y-126699000D01*
X141600000Y-126699000D02*
X141600000Y-106400000D01*
X167901000Y-128199000D02*
X143100000Y-128199000D01*
%TO.N,SPI MOSI*%
X151544999Y-123100000D02*
X151500000Y-123100000D01*
%TO.N,SPI MISO*%
X156500000Y-110400000D02*
X156500000Y-109600000D01*
X156500000Y-113835107D02*
X156500000Y-110400000D01*
X149004999Y-123100000D02*
X149004999Y-121330108D01*
X149004999Y-121330108D02*
X156500000Y-113835107D01*
X156500000Y-109600000D02*
X156500000Y-109700000D01*
%TO.N,SPI SCK*%
X154084999Y-81300000D02*
X154100000Y-81300000D01*
X155700000Y-113864999D02*
X146464999Y-123100000D01*
X155700000Y-109600000D02*
X155700000Y-109000000D01*
X155700000Y-109500000D02*
X155700000Y-113864999D01*
X155700000Y-109500000D02*
X155700000Y-109600000D01*
X154100000Y-81300000D02*
X154200000Y-81400000D01*
%TO.N,Net-(U_TC4056A1-STDBY)*%
X163600000Y-115950057D02*
X163600000Y-89335661D01*
X139752000Y-79748000D02*
X137300000Y-82200000D01*
X163600000Y-89335661D02*
X157775999Y-83511660D01*
X157775999Y-83511660D02*
X157775999Y-80823240D01*
X164301000Y-117442652D02*
X164301000Y-116651057D01*
X163678652Y-118065000D02*
X164301000Y-117442652D01*
X164301000Y-116651057D02*
X163600000Y-115950057D01*
X157775999Y-80823240D02*
X156700759Y-79748000D01*
X156700759Y-79748000D02*
X139752000Y-79748000D01*
%TO.N,Net-(U4-CS)*%
X143924999Y-81300000D02*
X143900000Y-81300000D01*
X143900000Y-81300000D02*
X143900000Y-83700000D01*
X143900000Y-83700000D02*
X143900000Y-83800000D01*
%TO.N,Net-(U4-RES)*%
X150400000Y-82695001D02*
X150400000Y-106400000D01*
X149004999Y-81300000D02*
X150400000Y-82695001D01*
%TO.N,\u00C9cran D{slash}C*%
X149300000Y-108800000D02*
X149300000Y-84135001D01*
X149300000Y-84135001D02*
X146464999Y-81300000D01*
%TO.N,Net-(U_TC4056A1-CHRG)*%
X163700000Y-119356348D02*
X163054598Y-118710946D01*
X140908239Y-80149000D02*
X138900000Y-82157239D01*
X163054598Y-118710946D02*
X163054598Y-89357359D01*
X138900000Y-82200000D02*
X138800000Y-82200000D01*
X138900000Y-82157239D02*
X138900000Y-82200000D01*
X163054598Y-89357359D02*
X155473999Y-81776760D01*
X154649000Y-80149000D02*
X140908239Y-80149000D01*
X155473999Y-80973999D02*
X154649000Y-80149000D01*
X155473999Y-81776760D02*
X155473999Y-80973999D01*
%TD*%
M02*
