%TF.GenerationSoftware,KiCad,Pcbnew,9.0.1*%
%TF.CreationDate,2025-09-03T21:59:16+02:00*%
%TF.ProjectId,cartouche v1,63617274-6f75-4636-9865-2076312e6b69,rev?*%
%TF.SameCoordinates,Original*%
%TF.FileFunction,Copper,L3,Inr*%
%TF.FilePolarity,Positive*%
%FSLAX46Y46*%
G04 Gerber Fmt 4.6, Leading zero omitted, Abs format (unit mm)*
G04 Created by KiCad (PCBNEW 9.0.1) date 2025-09-03 21:59:16*
%MOMM*%
%LPD*%
G01*
G04 APERTURE LIST*
%TA.AperFunction,ComponentPad*%
%ADD10C,2.000000*%
%TD*%
%TA.AperFunction,ComponentPad*%
%ADD11R,1.700000X1.700000*%
%TD*%
%TA.AperFunction,ComponentPad*%
%ADD12C,1.700000*%
%TD*%
%TA.AperFunction,HeatsinkPad*%
%ADD13O,2.100000X1.000000*%
%TD*%
%TA.AperFunction,HeatsinkPad*%
%ADD14O,1.800000X1.000000*%
%TD*%
%TA.AperFunction,ViaPad*%
%ADD15C,0.600000*%
%TD*%
%TA.AperFunction,ViaPad*%
%ADD16C,0.300000*%
%TD*%
%TA.AperFunction,Conductor*%
%ADD17C,1.000000*%
%TD*%
%TA.AperFunction,Conductor*%
%ADD18C,0.200000*%
%TD*%
G04 APERTURE END LIST*
D10*
%TO.N,Net-(R3-Pad2)*%
%TO.C,S1*%
X147024999Y-114150000D03*
X153524999Y-114150000D03*
%TO.N,GND*%
X147024999Y-118650000D03*
X153524999Y-118650000D03*
%TD*%
D11*
%TO.N,GND*%
%TO.C,U4*%
X159164999Y-81300000D03*
D12*
%TO.N,Vout3v3*%
X156624999Y-81300000D03*
%TO.N,SPI SCK*%
X154084999Y-81300000D03*
%TO.N,SPI MOSI*%
X151544999Y-81300000D03*
%TO.N,Net-(U4-RES)*%
X149004999Y-81300000D03*
%TO.N,\u00C9cran D{slash}C*%
X146464999Y-81300000D03*
%TO.N,Net-(U4-CS)*%
X143924999Y-81300000D03*
%TO.N,Vout3v3*%
X141384999Y-81300000D03*
%TD*%
D11*
%TO.N,GND*%
%TO.C,J2*%
X156624999Y-123100000D03*
D12*
%TO.N,CS Console*%
X154084999Y-123100000D03*
%TO.N,SPI MOSI*%
X151544999Y-123100000D03*
%TO.N,SPI MISO*%
X149004999Y-123100000D03*
%TO.N,SPI SCK*%
X146464999Y-123100000D03*
%TO.N,+5V*%
X143924999Y-123100000D03*
%TD*%
D13*
%TO.N,GND*%
%TO.C,USB-C*%
X168485000Y-111370000D03*
D14*
X172665000Y-111370000D03*
D13*
X168485000Y-102730000D03*
D14*
X172665000Y-102730000D03*
%TD*%
D15*
%TO.N,Net-(U_TC4056A1-STDBY)*%
X137400000Y-82202767D03*
%TO.N,Net-(U_TC4056A1-CHRG)*%
X138800000Y-82200000D03*
%TO.N,Net-(Q1-S)*%
X166150000Y-89950000D03*
X171050000Y-93550000D03*
%TO.N,Vout3v3*%
X168300000Y-82400000D03*
X172800000Y-82360000D03*
%TO.N,+5V*%
X166050000Y-121250000D03*
%TO.N,3v3*%
X134612500Y-116387500D03*
X137900000Y-119200000D03*
%TO.N,GND*%
X165500000Y-125300000D03*
X142087500Y-90850000D03*
D16*
X162200000Y-107500000D03*
D15*
%TO.N,OUT+*%
X141600000Y-106400000D03*
X165200000Y-91875000D03*
X163700000Y-116900000D03*
X170800000Y-125300000D03*
%TO.N,+5V*%
X137200000Y-80900000D03*
X169700000Y-115200000D03*
%TO.N,Vout3v3*%
X142100000Y-93050000D03*
X130600000Y-80300000D03*
X134225000Y-82900000D03*
X144600000Y-98400000D03*
%TO.N,Vin*%
X135400000Y-123200000D03*
X164250000Y-90000000D03*
X167800000Y-92100000D03*
%TO.N,Net-(U_polux1-VAUX)*%
X136700000Y-117800000D03*
X137600000Y-115600000D03*
%TO.N,SPI MOSI*%
X142100000Y-94200000D03*
X154700000Y-110500000D03*
%TO.N,SPI MISO*%
X142087500Y-89750000D03*
X156500000Y-110400000D03*
%TO.N,SPI SCK*%
X142087500Y-91950000D03*
X155700000Y-109000000D03*
%TO.N,CS Console*%
X154100000Y-108900000D03*
%TO.N,LEDrgb*%
X160000000Y-103900000D03*
X135900000Y-80700000D03*
%TO.N,Net-(Q3-G2)*%
X167500000Y-116400000D03*
X174400000Y-118362500D03*
%TO.N,Net-(Q3-G1)*%
X163200000Y-122800000D03*
X172500000Y-118362500D03*
%TO.N,Net-(U_TC4056A1-CHRG)*%
X163700000Y-119356348D03*
%TO.N,Net-(U_TC4056A1-STDBY)*%
X163678652Y-118065000D03*
%TO.N,CS_sdcard*%
X145300000Y-96400000D03*
X152500000Y-109600000D03*
%TO.N,CD*%
X157300000Y-109700000D03*
X145200000Y-87600000D03*
%TO.N,Boot Mode Select*%
X132725000Y-83550000D03*
X158100000Y-109600000D03*
%TO.N,Net-(U4-CS)*%
X143900000Y-83700000D03*
%TO.N,CS \u00C9cran*%
X147800000Y-84900000D03*
X150100000Y-108800000D03*
%TO.N,Net-(U4-RES)*%
X144900000Y-106500000D03*
X150400000Y-106400000D03*
%TO.N,SW-reset*%
X129615472Y-84755913D03*
X146500000Y-107300000D03*
%TO.N,SW-1*%
X160000000Y-104700000D03*
X157300000Y-114200000D03*
%TO.N,Net-(U3-CD)*%
X142087500Y-87550000D03*
%TO.N,\u00C9cran D{slash}C*%
X149300000Y-108800000D03*
X149300000Y-108800000D03*
X149300000Y-108800000D03*
%TO.N,OUT+*%
X161900000Y-109100000D03*
%TO.N,+5V*%
X165750000Y-102050000D03*
%TD*%
D17*
%TO.N,Net-(Q1-S)*%
X171050000Y-93550000D02*
X167450000Y-89950000D01*
X167450000Y-89950000D02*
X166150000Y-89950000D01*
%TO.N,OUT+*%
X166200000Y-117400000D02*
X166200000Y-117000000D01*
X168450000Y-119650000D02*
X166200000Y-117400000D01*
X170800000Y-125300000D02*
X168450000Y-122950000D01*
X168450000Y-122950000D02*
X168450000Y-119650000D01*
X166200000Y-117000000D02*
X163800000Y-117000000D01*
X163800000Y-117000000D02*
X163700000Y-116900000D01*
%TO.N,Vout3v3*%
X144600000Y-98400000D02*
X144200000Y-98400000D01*
X144200000Y-98400000D02*
X141050000Y-95250000D01*
X141050000Y-95250000D02*
X141050000Y-93350000D01*
X141050000Y-93350000D02*
X141450000Y-92950000D01*
X141450000Y-92950000D02*
X142000000Y-92950000D01*
X142000000Y-92950000D02*
X142100000Y-93050000D01*
D18*
%TO.N,SPI MOSI*%
X151500000Y-107300000D02*
X151500000Y-93500000D01*
X154600000Y-114914891D02*
X154825999Y-114688892D01*
X150700000Y-94200000D02*
X142100000Y-94200000D01*
X154600000Y-120044999D02*
X154600000Y-119414891D01*
X154825999Y-119188892D02*
X154825999Y-118111108D01*
X154825999Y-114688892D02*
X154825999Y-113611108D01*
X154600000Y-119414891D02*
X154825999Y-119188892D01*
X154825999Y-118111108D02*
X154600000Y-117885109D01*
X154700000Y-110500000D02*
X151500000Y-107300000D01*
X150800000Y-94200000D02*
X150700000Y-94200000D01*
X151544999Y-81300000D02*
X151544999Y-93455001D01*
X151544999Y-123100000D02*
X154600000Y-120044999D01*
X154825999Y-113611108D02*
X154700000Y-113485109D01*
X154600000Y-117885109D02*
X154600000Y-114914891D01*
X154700000Y-113485109D02*
X154700000Y-110500000D01*
X150900000Y-94100000D02*
X150800000Y-94200000D01*
X151544999Y-93455001D02*
X151500000Y-93500000D01*
X151500000Y-93500000D02*
X150900000Y-94100000D01*
%TO.N,SPI SCK*%
X142087500Y-92087500D02*
X142100000Y-92100000D01*
X154084999Y-81300000D02*
X154084999Y-107384999D01*
X142087500Y-91950000D02*
X142087500Y-92087500D01*
X154084999Y-107384999D02*
X155700000Y-109000000D01*
%TO.N,CS Console*%
X154667100Y-108900000D02*
X155301000Y-109533900D01*
X154100000Y-108900000D02*
X154667100Y-108900000D01*
X155301000Y-121883999D02*
X154084999Y-123100000D01*
X155301000Y-109533900D02*
X155301000Y-121883999D01*
%TO.N,Net-(U4-RES)*%
X145000000Y-106400000D02*
X144900000Y-106500000D01*
X150400000Y-106400000D02*
X145000000Y-106400000D01*
%TD*%
M02*
