M48
; DRILL file {KiCad 9.0.1} date 2025-09-05T18:40:00+0200
; FORMAT={-:-/ absolute / metric / decimal}
; #@! TF.CreationDate,2025-09-05T18:40:00+02:00
; #@! TF.GenerationSoftware,Kicad,Pcbnew,9.0.1
; #@! TF.FileFunction,Plated,1,4,PTH
FMAT,2
METRIC
; #@! TA.AperFunction,Plated,PTH,ViaDrill
T1C0.200
; #@! TA.AperFunction,Plated,PTH,ViaDrill
T2C0.300
; #@! TA.AperFunction,Plated,PTH,ComponentDrill
T3C0.600
; #@! TA.AperFunction,Plated,PTH,ComponentDrill
T4C0.650
; #@! TA.AperFunction,Plated,PTH,ComponentDrill
T5C0.900
; #@! TA.AperFunction,Plated,PTH,ComponentDrill
T6C1.000
; #@! TA.AperFunction,Plated,PTH,ComponentDrill
T7C1.100
%
G90
G05
T1
X162.2Y-107.5
T2
X127.525Y-81.45
X129.615Y-84.756
X130.6Y-80.3
X132.725Y-83.55
X133.4Y-124.225
X134.225Y-82.9
X134.225Y-126.825
X134.5Y-126.5
X134.612Y-116.387
X134.875Y-123.225
X134.9Y-80.215
X135.775Y-82.9
X136.7Y-117.8
X137.2Y-80.9
X137.35Y-84.75
X137.4Y-82.203
X137.6Y-115.6
X137.9Y-119.2
X137.95Y-79.6
X138.85Y-83.125
X138.85Y-84.8
X140.425Y-83.8
X141.425Y-103.125
X141.6Y-106.4
X142.088Y-87.55
X142.088Y-89.75
X142.088Y-90.85
X142.088Y-91.95
X142.1Y-93.05
X142.1Y-94.2
X143.9Y-83.7
X144.6Y-98.4
X144.9Y-106.5
X145.2Y-87.6
X145.3Y-96.4
X146.5Y-107.3
X147.8Y-84.9
X149.3Y-107.2
X150.1Y-108.8
X150.4Y-106.4
X152.5Y-109.6
X154.1Y-108.9
X154.826Y-110.825
X155.7Y-109.0
X156.5Y-110.4
X157.3Y-109.7
X157.3Y-114.2
X158.1Y-109.6
X160.0Y-103.9
X160.0Y-104.7
X161.9Y-109.1
X162.4Y-87.05
X162.725Y-83.25
X163.2Y-122.8
X163.679Y-118.065
X163.7Y-116.9
X163.7Y-119.356
X164.25Y-90.0
X164.725Y-115.2
X165.2Y-91.875
X165.5Y-125.3
X165.75Y-102.05
X166.05Y-121.25
X166.15Y-89.95
X167.5Y-116.4
X167.8Y-92.1
X168.3Y-82.4
X169.7Y-115.2
X170.8Y-125.3
X171.05Y-93.55
X172.5Y-118.362
X172.8Y-82.36
X174.4Y-118.362
T4
X168.985Y-104.16
X168.985Y-109.94
T5
X131.588Y-89.15
X131.588Y-97.15
X169.05Y-80.6
X172.05Y-80.6
T6
X141.385Y-81.3
X143.925Y-81.3
X143.925Y-123.1
X146.465Y-81.3
X146.465Y-123.1
X149.005Y-81.3
X149.005Y-123.1
X151.545Y-81.3
X151.545Y-123.1
X154.085Y-81.3
X154.085Y-123.1
X156.625Y-81.3
X156.625Y-123.1
X159.165Y-81.3
T7
X147.025Y-114.15
X147.025Y-118.65
X153.525Y-114.15
X153.525Y-118.65
T3
G00X167.935Y-102.73
M15
G01X169.035Y-102.73
M16
G05
G00X167.935Y-111.37
M15
G01X169.035Y-111.37
M16
G05
G00X172.265Y-102.73
M15
G01X173.065Y-102.73
M16
G05
G00X172.265Y-111.37
M15
G01X173.065Y-111.37
M16
G05
M30
