%TF.GenerationSoftware,KiCad,Pcbnew,9.0.1*%
%TF.CreationDate,2025-09-05T18:40:03+02:00*%
%TF.ProjectId,cartouche v1,63617274-6f75-4636-9865-2076312e6b69,rev?*%
%TF.SameCoordinates,Original*%
%TF.FileFunction,Copper,L4,Bot*%
%TF.FilePolarity,Positive*%
%FSLAX46Y46*%
G04 Gerber Fmt 4.6, Leading zero omitted, Abs format (unit mm)*
G04 Created by KiCad (PCBNEW 9.0.1) date 2025-09-05 18:40:03*
%MOMM*%
%LPD*%
G01*
G04 APERTURE LIST*
%TA.AperFunction,Conductor*%
%ADD10C,0.200000*%
%TD*%
%TA.AperFunction,ComponentPad*%
%ADD11C,0.650000*%
%TD*%
%TA.AperFunction,HeatsinkPad*%
%ADD12O,2.100000X1.000000*%
%TD*%
%TA.AperFunction,HeatsinkPad*%
%ADD13O,1.800000X1.000000*%
%TD*%
%TA.AperFunction,ComponentPad*%
%ADD14C,0.900000*%
%TD*%
%TA.AperFunction,ComponentPad*%
%ADD15C,2.000000*%
%TD*%
%TA.AperFunction,ComponentPad*%
%ADD16R,1.700000X1.700000*%
%TD*%
%TA.AperFunction,ComponentPad*%
%ADD17C,1.700000*%
%TD*%
%TA.AperFunction,ViaPad*%
%ADD18C,0.600000*%
%TD*%
%TA.AperFunction,ViaPad*%
%ADD19C,0.450000*%
%TD*%
%TA.AperFunction,Conductor*%
%ADD20C,1.000000*%
%TD*%
G04 APERTURE END LIST*
D10*
%TO.N,Vin*%
X135525000Y-123575000D02*
X135550000Y-127500000D01*
X133500000Y-127550000D01*
X133625000Y-122650000D01*
X135525000Y-122650000D01*
X135525000Y-123575000D01*
%TA.AperFunction,Conductor*%
G36*
X135525000Y-123575000D02*
G01*
X135550000Y-127500000D01*
X133500000Y-127550000D01*
X133625000Y-122650000D01*
X135525000Y-122650000D01*
X135525000Y-123575000D01*
G37*
%TD.AperFunction*%
%TD*%
D11*
%TO.P,USB-C,*%
%TO.N,*%
X168985000Y-109940000D03*
X168985000Y-104160000D03*
D12*
%TO.P,USB-C,S1,SHIELD*%
%TO.N,GND*%
X168485000Y-111370000D03*
D13*
X172665000Y-111370000D03*
D12*
X168485000Y-102730000D03*
D13*
X172665000Y-102730000D03*
%TD*%
D14*
%TO.P,switch_ON/OFF,*%
%TO.N,*%
X172050000Y-80600000D03*
X169050000Y-80600000D03*
%TD*%
%TO.P,MicroSD,*%
%TO.N,*%
X131587500Y-97150000D03*
X131587500Y-89150000D03*
%TD*%
D15*
%TO.P,S1,1,1*%
%TO.N,Net-(R3-Pad2)*%
X147024999Y-114150000D03*
X153524999Y-114150000D03*
%TO.P,S1,2,2*%
%TO.N,GND*%
X147024999Y-118650000D03*
X153524999Y-118650000D03*
%TD*%
D16*
%TO.P,SCREEN,1,GND*%
%TO.N,GND*%
X159164999Y-81300000D03*
D17*
%TO.P,SCREEN,2,VCC*%
%TO.N,Vout3v3*%
X156624999Y-81300000D03*
%TO.P,SCREEN,3,SCL*%
%TO.N,SPI SCK*%
X154084999Y-81300000D03*
%TO.P,SCREEN,4,SDA*%
%TO.N,SPI MOSI*%
X151544999Y-81300000D03*
%TO.P,SCREEN,5,RES*%
%TO.N,Net-(U3-RES)*%
X149004999Y-81300000D03*
%TO.P,SCREEN,6,DC*%
%TO.N,\u00C9cran D{slash}C*%
X146464999Y-81300000D03*
%TO.P,SCREEN,7,CS*%
%TO.N,Net-(U3-CS)*%
X143924999Y-81300000D03*
%TO.P,SCREEN,8,BLK*%
%TO.N,Vout3v3*%
X141384999Y-81300000D03*
%TD*%
D16*
%TO.P,J2,1,Pin_1*%
%TO.N,GND*%
X156624999Y-123100000D03*
D17*
%TO.P,J2,2,Pin_2*%
%TO.N,CS Console*%
X154084999Y-123100000D03*
%TO.P,J2,3,Pin_3*%
%TO.N,SPI MOSI*%
X151544999Y-123100000D03*
%TO.P,J2,4,Pin_4*%
%TO.N,SPI MISO*%
X149004999Y-123100000D03*
%TO.P,J2,5,Pin_5*%
%TO.N,SPI SCK*%
X146464999Y-123100000D03*
%TO.P,J2,6,Pin_6*%
%TO.N,+5V*%
X143924999Y-123100000D03*
%TD*%
D18*
%TO.N,Vin*%
X133400000Y-124225000D03*
X134500000Y-126500000D03*
X134225000Y-126825000D03*
%TO.N,GND*%
X165500000Y-125300000D03*
X140425000Y-83800000D03*
X164725000Y-115200000D03*
X142087500Y-90850000D03*
X127525000Y-81450000D03*
X135775000Y-82900000D03*
D19*
X162200000Y-107500000D03*
D18*
X141425000Y-103125000D03*
%TO.N,OUT+*%
X141600000Y-106400000D03*
X165200000Y-91875000D03*
X161900000Y-109100000D03*
X163700000Y-116900000D03*
X170800000Y-125300000D03*
%TO.N,+5V*%
X137200000Y-80900000D03*
X166050000Y-121250000D03*
X169700000Y-115200000D03*
X165750000Y-102050000D03*
%TO.N,Vout3v3*%
X162725000Y-83250000D03*
X142100000Y-93050000D03*
X130600000Y-80300000D03*
X134225000Y-82900000D03*
X144600000Y-98400000D03*
X172800000Y-82360000D03*
X168300000Y-82400000D03*
%TO.N,Vin*%
X134875000Y-123225000D03*
X164250000Y-90000000D03*
X167800000Y-92100000D03*
%TO.N,Net-(U_polux1-VAUX)*%
X136700000Y-117800000D03*
X137600000Y-115600000D03*
%TO.N,SPI MOSI*%
X142100000Y-94200000D03*
X154825999Y-110825000D03*
%TO.N,SPI MISO*%
X142087500Y-89750000D03*
X156500000Y-110400000D03*
%TO.N,SPI SCK*%
X142087500Y-91950000D03*
X155700000Y-109000000D03*
%TO.N,CS Console*%
X154100000Y-108900000D03*
%TO.N,LEDrgb*%
X160000000Y-103900000D03*
X162400000Y-87050000D03*
%TO.N,Net-(Q3-G2)*%
X167500000Y-116400000D03*
X174400000Y-118362500D03*
%TO.N,Net-(Q3-G1)*%
X163200000Y-122800000D03*
X172500000Y-118362500D03*
%TO.N,Net-(U_TC4056A1-CHRG)*%
X138850000Y-83125000D03*
X163700000Y-119356348D03*
%TO.N,Net-(U_TC4056A1-STDBY)*%
X163678652Y-118065000D03*
X137400000Y-82202767D03*
%TO.N,CS_sdcard*%
X145300000Y-96400000D03*
X152500000Y-109600000D03*
%TO.N,CD*%
X157300000Y-109700000D03*
X145200000Y-87600000D03*
%TO.N,Boot Mode Select*%
X132725000Y-83550000D03*
X158100000Y-109600000D03*
%TO.N,CS \u00C9cran*%
X147800000Y-84900000D03*
X150100000Y-108800000D03*
%TO.N,SW-reset*%
X129615472Y-84755913D03*
X146500000Y-107300000D03*
%TO.N,Net-(LED2-K)*%
X137950000Y-79600000D03*
X138850000Y-84800000D03*
%TO.N,SW-1*%
X160000000Y-104700000D03*
X157300000Y-114200000D03*
%TO.N,Net-(LED3-K)*%
X134900000Y-80215000D03*
X137350000Y-84750000D03*
%TO.N,Net-(Q1-S)*%
X166150000Y-89950000D03*
X171050000Y-93550000D03*
%TO.N,\u00C9cran D{slash}C*%
X149300000Y-107200000D03*
%TO.N,Net-(U2-CD)*%
X142087500Y-87550000D03*
%TO.N,Net-(U3-RES)*%
X144900000Y-106500000D03*
X150400000Y-106400000D03*
%TO.N,Net-(U3-CS)*%
X143900000Y-83700000D03*
%TO.N,3v3*%
X134612500Y-116387500D03*
X137900000Y-119200000D03*
%TD*%
D10*
%TO.N,SPI MISO*%
X142087500Y-89750000D02*
X142990000Y-89750000D01*
X142990000Y-89750000D02*
X156500000Y-103260000D01*
X156500000Y-103260000D02*
X156500000Y-110400000D01*
%TO.N,CS_sdcard*%
X145300000Y-96400000D02*
X145300000Y-97590000D01*
X145300000Y-97590000D02*
X152500000Y-104790000D01*
X152500000Y-104790000D02*
X152500000Y-109600000D01*
D20*
%TO.N,OUT+*%
X161300000Y-108500000D02*
X161300000Y-95775000D01*
X161300000Y-95775000D02*
X165200000Y-91875000D01*
X161900000Y-109100000D02*
X161300000Y-108500000D01*
D10*
%TO.N,+5V*%
X165800000Y-111300000D02*
X169700000Y-115200000D01*
D20*
X145624999Y-124800000D02*
X159600000Y-124800000D01*
X165800000Y-118600000D02*
X165800000Y-103350000D01*
X143651057Y-86001000D02*
X138550057Y-80900000D01*
X165800000Y-102100000D02*
X165750000Y-102050000D01*
D10*
X165800000Y-103350000D02*
X165800000Y-111300000D01*
D20*
X165800000Y-103350000D02*
X165800000Y-102100000D01*
X164301000Y-86001000D02*
X143651057Y-86001000D01*
X165750000Y-102050000D02*
X169100000Y-98700000D01*
X138550057Y-80900000D02*
X137200000Y-80900000D01*
X169100000Y-98700000D02*
X169100000Y-90800000D01*
X169100000Y-90800000D02*
X164301000Y-86001000D01*
X143924999Y-123100000D02*
X145624999Y-124800000D01*
X159600000Y-124800000D02*
X165800000Y-118600000D01*
%TO.N,Vout3v3*%
X162725000Y-82400000D02*
X161350000Y-82400000D01*
X168300000Y-82400000D02*
X172760000Y-82400000D01*
D10*
X134225000Y-82225000D02*
X132300000Y-80300000D01*
D20*
X160800000Y-82950000D02*
X157350000Y-82950000D01*
X157350000Y-82950000D02*
X157350000Y-82025001D01*
X156624999Y-81300000D02*
X156600000Y-81324999D01*
X172760000Y-82400000D02*
X172800000Y-82360000D01*
X157350000Y-82025001D02*
X156624999Y-81300000D01*
D10*
X134225000Y-82900000D02*
X134150000Y-82975000D01*
D20*
X168300000Y-82400000D02*
X162725000Y-82400000D01*
X161350000Y-82400000D02*
X160800000Y-82950000D01*
D10*
X162725000Y-83250000D02*
X162725000Y-82400000D01*
X134225000Y-82900000D02*
X134225000Y-82225000D01*
X132300000Y-80300000D02*
X130600000Y-80300000D01*
D20*
%TO.N,Vin*%
X134875000Y-123225000D02*
X135425000Y-123225000D01*
X164400000Y-109400000D02*
X164400000Y-95500000D01*
X138000000Y-120700000D02*
X159900000Y-120700000D01*
X135450000Y-123250000D02*
X138000000Y-120700000D01*
X164400000Y-95500000D02*
X167800000Y-92100000D01*
X162100000Y-118500000D02*
X162100000Y-111700000D01*
X162100000Y-111700000D02*
X164400000Y-109400000D01*
X135425000Y-123225000D02*
X135450000Y-123250000D01*
X159900000Y-120700000D02*
X162100000Y-118500000D01*
D10*
%TO.N,Net-(U_polux1-VAUX)*%
X137600000Y-116900000D02*
X136700000Y-117800000D01*
X137600000Y-115600000D02*
X137600000Y-116900000D01*
%TO.N,SPI SCK*%
X142087500Y-91950000D02*
X142050000Y-91950000D01*
X155700000Y-105700000D02*
X155700000Y-109000000D01*
X142050000Y-91950000D02*
X142000000Y-92000000D01*
X142000000Y-92000000D02*
X155700000Y-105700000D01*
%TO.N,LEDrgb*%
X159600000Y-103900000D02*
X160000000Y-103900000D01*
X159000000Y-103300000D02*
X159600000Y-103900000D01*
X159000000Y-100550057D02*
X159000000Y-103300000D01*
X159000000Y-100550057D02*
X159000000Y-90450000D01*
X159000000Y-90450000D02*
X162400000Y-87050000D01*
%TO.N,Net-(Q3-G2)*%
X173000000Y-116400000D02*
X174673999Y-118073999D01*
X174673999Y-118073999D02*
X174673999Y-118400000D01*
X167500000Y-116400000D02*
X173000000Y-116400000D01*
%TO.N,Net-(Q3-G1)*%
X172500000Y-118362500D02*
X172500000Y-118586152D01*
X163800000Y-122200000D02*
X163200000Y-122800000D01*
X172500000Y-118586152D02*
X168886152Y-122200000D01*
X168886152Y-122200000D02*
X163800000Y-122200000D01*
%TO.N,CD*%
X145300000Y-87600000D02*
X157300000Y-99600000D01*
X145200000Y-87600000D02*
X145300000Y-87600000D01*
X157300000Y-99600000D02*
X157300000Y-109700000D01*
%TO.N,SW-reset*%
X146500000Y-106500000D02*
X146500000Y-107300000D01*
X129615472Y-84755913D02*
X146500000Y-101640441D01*
X146500000Y-101640441D02*
X146500000Y-106500000D01*
%TO.N,Net-(LED2-K)*%
X137950000Y-79600000D02*
X136850000Y-79600000D01*
X136850000Y-79600000D02*
X136800000Y-79650000D01*
X136800000Y-79650000D02*
X136400000Y-80050000D01*
X136400000Y-81450000D02*
X136400000Y-82100000D01*
X138850000Y-84550000D02*
X138850000Y-84800000D01*
X137900000Y-83600000D02*
X138850000Y-84550000D01*
X136400000Y-80050000D02*
X136400000Y-81450000D01*
X136400000Y-82100000D02*
X137900000Y-83600000D01*
%TO.N,SW-1*%
X157300000Y-114200000D02*
X160000000Y-111500000D01*
X160000000Y-111500000D02*
X160000000Y-104700000D01*
%TO.N,Net-(LED3-K)*%
X134900000Y-80215000D02*
X134900000Y-81176471D01*
X134900000Y-81176471D02*
X136111765Y-82388236D01*
X137350000Y-83626471D02*
X137350000Y-84750000D01*
X136111765Y-82388236D02*
X137350000Y-83626471D01*
%TO.N,3v3*%
X137900000Y-119200000D02*
X137250057Y-119200000D01*
X137250057Y-119200000D02*
X134612500Y-116562443D01*
X134612500Y-116562443D02*
X134612500Y-116387500D01*
%TD*%
M02*
