%TF.GenerationSoftware,KiCad,Pcbnew,9.0.1*%
%TF.CreationDate,2025-09-05T18:40:03+02:00*%
%TF.ProjectId,cartouche v1,63617274-6f75-4636-9865-2076312e6b69,rev?*%
%TF.SameCoordinates,Original*%
%TF.FileFunction,Copper,L1,Top*%
%TF.FilePolarity,Positive*%
%FSLAX46Y46*%
G04 Gerber Fmt 4.6, Leading zero omitted, Abs format (unit mm)*
G04 Created by KiCad (PCBNEW 9.0.1) date 2025-09-05 18:40:03*
%MOMM*%
%LPD*%
G01*
G04 APERTURE LIST*
G04 Aperture macros list*
%AMRoundRect*
0 Rectangle with rounded corners*
0 $1 Rounding radius*
0 $2 $3 $4 $5 $6 $7 $8 $9 X,Y pos of 4 corners*
0 Add a 4 corners polygon primitive as box body*
4,1,4,$2,$3,$4,$5,$6,$7,$8,$9,$2,$3,0*
0 Add four circle primitives for the rounded corners*
1,1,$1+$1,$2,$3*
1,1,$1+$1,$4,$5*
1,1,$1+$1,$6,$7*
1,1,$1+$1,$8,$9*
0 Add four rect primitives between the rounded corners*
20,1,$1+$1,$2,$3,$4,$5,0*
20,1,$1+$1,$4,$5,$6,$7,0*
20,1,$1+$1,$6,$7,$8,$9,0*
20,1,$1+$1,$8,$9,$2,$3,0*%
%AMFreePoly0*
4,1,11,1.015000,1.170000,0.435000,0.575000,0.435000,-0.575000,1.015000,-1.170000,1.015000,-1.945000,0.125000,-1.945000,-0.435000,-1.395000,-0.435000,1.395000,0.125000,1.945000,1.015000,1.945000,1.015000,1.170000,1.015000,1.170000,$1*%
%AMFreePoly1*
4,1,11,0.435000,1.395000,0.435000,-1.395000,-0.125000,-1.945000,-1.015000,-1.945000,-1.015000,-1.170000,-0.435000,-0.575000,-0.435000,0.575000,-1.015000,1.170000,-1.015000,1.945000,-0.125000,1.945000,0.435000,1.395000,0.435000,1.395000,$1*%
%AMFreePoly2*
4,1,6,1.000000,0.000000,0.500000,-0.750000,-0.500000,-0.750000,-0.500000,0.750000,0.500000,0.750000,1.000000,0.000000,1.000000,0.000000,$1*%
%AMFreePoly3*
4,1,6,0.500000,-0.750000,-0.650000,-0.750000,-0.150000,0.000000,-0.650000,0.750000,0.500000,0.750000,0.500000,-0.750000,0.500000,-0.750000,$1*%
G04 Aperture macros list end*
%TA.AperFunction,Conductor*%
%ADD10C,0.200000*%
%TD*%
%TA.AperFunction,NonConductor*%
%ADD11C,0.200000*%
%TD*%
%TA.AperFunction,ComponentPad*%
%ADD12C,0.650000*%
%TD*%
%TA.AperFunction,SMDPad,CuDef*%
%ADD13RoundRect,0.150000X0.425000X-0.150000X0.425000X0.150000X-0.425000X0.150000X-0.425000X-0.150000X0*%
%TD*%
%TA.AperFunction,SMDPad,CuDef*%
%ADD14RoundRect,0.075000X0.500000X-0.075000X0.500000X0.075000X-0.500000X0.075000X-0.500000X-0.075000X0*%
%TD*%
%TA.AperFunction,HeatsinkPad*%
%ADD15O,2.100000X1.000000*%
%TD*%
%TA.AperFunction,HeatsinkPad*%
%ADD16O,1.800000X1.000000*%
%TD*%
%TA.AperFunction,SMDPad,CuDef*%
%ADD17R,1.000000X0.800000*%
%TD*%
%TA.AperFunction,ComponentPad*%
%ADD18C,0.900000*%
%TD*%
%TA.AperFunction,SMDPad,CuDef*%
%ADD19R,0.700000X1.500000*%
%TD*%
%TA.AperFunction,SMDPad,CuDef*%
%ADD20R,1.600000X0.700000*%
%TD*%
%TA.AperFunction,SMDPad,CuDef*%
%ADD21R,2.200000X1.200000*%
%TD*%
%TA.AperFunction,SMDPad,CuDef*%
%ADD22R,1.400000X1.600000*%
%TD*%
%TA.AperFunction,SMDPad,CuDef*%
%ADD23R,1.400000X1.200000*%
%TD*%
%TA.AperFunction,SMDPad,CuDef*%
%ADD24RoundRect,0.200000X0.200000X0.275000X-0.200000X0.275000X-0.200000X-0.275000X0.200000X-0.275000X0*%
%TD*%
%TA.AperFunction,SMDPad,CuDef*%
%ADD25RoundRect,0.200000X-0.200000X-0.275000X0.200000X-0.275000X0.200000X0.275000X-0.200000X0.275000X0*%
%TD*%
%TA.AperFunction,SMDPad,CuDef*%
%ADD26RoundRect,0.200000X-0.275000X0.200000X-0.275000X-0.200000X0.275000X-0.200000X0.275000X0.200000X0*%
%TD*%
%TA.AperFunction,SMDPad,CuDef*%
%ADD27RoundRect,0.135000X0.135000X0.185000X-0.135000X0.185000X-0.135000X-0.185000X0.135000X-0.185000X0*%
%TD*%
%TA.AperFunction,SMDPad,CuDef*%
%ADD28RoundRect,0.200000X0.275000X-0.200000X0.275000X0.200000X-0.275000X0.200000X-0.275000X-0.200000X0*%
%TD*%
%TA.AperFunction,SMDPad,CuDef*%
%ADD29RoundRect,0.075000X-0.075000X0.075000X-0.075000X-0.075000X0.075000X-0.075000X0.075000X0.075000X0*%
%TD*%
%TA.AperFunction,SMDPad,CuDef*%
%ADD30RoundRect,0.225000X0.225000X0.250000X-0.225000X0.250000X-0.225000X-0.250000X0.225000X-0.250000X0*%
%TD*%
%TA.AperFunction,SMDPad,CuDef*%
%ADD31RoundRect,0.225000X-0.225000X-0.250000X0.225000X-0.250000X0.225000X0.250000X-0.225000X0.250000X0*%
%TD*%
%TA.AperFunction,SMDPad,CuDef*%
%ADD32R,1.500000X1.500000*%
%TD*%
%TA.AperFunction,SMDPad,CuDef*%
%ADD33R,0.280000X0.280000*%
%TD*%
%TA.AperFunction,SMDPad,CuDef*%
%ADD34O,0.280000X0.850000*%
%TD*%
%TA.AperFunction,SMDPad,CuDef*%
%ADD35R,0.600000X0.230000*%
%TD*%
%TA.AperFunction,SMDPad,CuDef*%
%ADD36R,0.700000X0.250000*%
%TD*%
%TA.AperFunction,SMDPad,CuDef*%
%ADD37R,0.900000X0.650000*%
%TD*%
%TA.AperFunction,SMDPad,CuDef*%
%ADD38R,2.150000X1.700000*%
%TD*%
%TA.AperFunction,ComponentPad*%
%ADD39C,2.000000*%
%TD*%
%TA.AperFunction,SMDPad,CuDef*%
%ADD40RoundRect,0.225000X-0.250000X0.225000X-0.250000X-0.225000X0.250000X-0.225000X0.250000X0.225000X0*%
%TD*%
%TA.AperFunction,SMDPad,CuDef*%
%ADD41R,0.700000X0.700000*%
%TD*%
%TA.AperFunction,SMDPad,CuDef*%
%ADD42RoundRect,0.225000X0.225000X0.375000X-0.225000X0.375000X-0.225000X-0.375000X0.225000X-0.375000X0*%
%TD*%
%TA.AperFunction,SMDPad,CuDef*%
%ADD43FreePoly0,90.000000*%
%TD*%
%TA.AperFunction,SMDPad,CuDef*%
%ADD44FreePoly1,90.000000*%
%TD*%
%TA.AperFunction,SMDPad,CuDef*%
%ADD45RoundRect,0.150000X0.150000X-0.587500X0.150000X0.587500X-0.150000X0.587500X-0.150000X-0.587500X0*%
%TD*%
%TA.AperFunction,SMDPad,CuDef*%
%ADD46R,1.700000X0.900000*%
%TD*%
%TA.AperFunction,SMDPad,CuDef*%
%ADD47RoundRect,0.147500X0.172500X-0.147500X0.172500X0.147500X-0.172500X0.147500X-0.172500X-0.147500X0*%
%TD*%
%TA.AperFunction,SMDPad,CuDef*%
%ADD48RoundRect,0.218750X0.381250X-0.218750X0.381250X0.218750X-0.381250X0.218750X-0.381250X-0.218750X0*%
%TD*%
%TA.AperFunction,ComponentPad*%
%ADD49R,1.700000X1.700000*%
%TD*%
%TA.AperFunction,ComponentPad*%
%ADD50C,1.700000*%
%TD*%
%TA.AperFunction,SMDPad,CuDef*%
%ADD51R,1.454899X0.558000*%
%TD*%
%TA.AperFunction,SMDPad,CuDef*%
%ADD52R,2.514600X3.403600*%
%TD*%
%TA.AperFunction,SMDPad,CuDef*%
%ADD53RoundRect,0.135000X-0.135000X-0.185000X0.135000X-0.185000X0.135000X0.185000X-0.135000X0.185000X0*%
%TD*%
%TA.AperFunction,SMDPad,CuDef*%
%ADD54RoundRect,0.225000X0.250000X-0.225000X0.250000X0.225000X-0.250000X0.225000X-0.250000X-0.225000X0*%
%TD*%
%TA.AperFunction,SMDPad,CuDef*%
%ADD55RoundRect,0.150000X-0.150000X0.512500X-0.150000X-0.512500X0.150000X-0.512500X0.150000X0.512500X0*%
%TD*%
%TA.AperFunction,SMDPad,CuDef*%
%ADD56FreePoly2,0.000000*%
%TD*%
%TA.AperFunction,SMDPad,CuDef*%
%ADD57FreePoly3,0.000000*%
%TD*%
%TA.AperFunction,SMDPad,CuDef*%
%ADD58RoundRect,0.150000X-0.150000X0.587500X-0.150000X-0.587500X0.150000X-0.587500X0.150000X0.587500X0*%
%TD*%
%TA.AperFunction,SMDPad,CuDef*%
%ADD59R,0.812800X0.406400*%
%TD*%
%TA.AperFunction,SMDPad,CuDef*%
%ADD60R,0.406400X0.812800*%
%TD*%
%TA.AperFunction,SMDPad,CuDef*%
%ADD61R,1.447800X1.447800*%
%TD*%
%TA.AperFunction,SMDPad,CuDef*%
%ADD62R,0.711200X0.711200*%
%TD*%
%TA.AperFunction,SMDPad,CuDef*%
%ADD63RoundRect,0.100000X0.100000X-0.637500X0.100000X0.637500X-0.100000X0.637500X-0.100000X-0.637500X0*%
%TD*%
%TA.AperFunction,SMDPad,CuDef*%
%ADD64C,2.500000*%
%TD*%
%TA.AperFunction,SMDPad,CuDef*%
%ADD65RoundRect,0.218750X0.218750X0.256250X-0.218750X0.256250X-0.218750X-0.256250X0.218750X-0.256250X0*%
%TD*%
%TA.AperFunction,ViaPad*%
%ADD66C,0.600000*%
%TD*%
%TA.AperFunction,ViaPad*%
%ADD67C,0.450000*%
%TD*%
%TA.AperFunction,Conductor*%
%ADD68C,1.000000*%
%TD*%
%TA.AperFunction,Conductor*%
%ADD69C,0.500000*%
%TD*%
%TA.AperFunction,Conductor*%
%ADD70C,0.100000*%
%TD*%
G04 APERTURE END LIST*
D10*
%TO.N,GND*%
X148075000Y-99675000D02*
X146050000Y-99475000D01*
X145975000Y-99450000D01*
X146000000Y-98750000D01*
X147525000Y-98500000D01*
X148075000Y-99675000D01*
%TA.AperFunction,Conductor*%
G36*
X148075000Y-99675000D02*
G01*
X146050000Y-99475000D01*
X145975000Y-99450000D01*
X146000000Y-98750000D01*
X147525000Y-98500000D01*
X148075000Y-99675000D01*
G37*
%TD.AperFunction*%
X174700000Y-115800000D02*
X172850000Y-115895000D01*
X172550000Y-117125000D01*
X171425000Y-117700000D01*
X171425000Y-118225000D01*
X169775000Y-118350000D01*
X168400000Y-118350000D01*
X168100000Y-118550000D01*
X168100000Y-119825000D01*
X168525000Y-120200000D01*
X169800000Y-120175000D01*
X169800000Y-120825000D01*
X168450000Y-120825000D01*
X167550000Y-120325000D01*
X165225000Y-120350000D01*
X165200000Y-117075000D01*
X167600000Y-117100000D01*
X167925000Y-117900000D01*
X169825000Y-117850000D01*
X170625000Y-117600000D01*
X170900000Y-114850000D01*
X173250000Y-114750000D01*
X173900000Y-113875000D01*
X173900000Y-113225000D01*
X174725000Y-113175000D01*
X174700000Y-115800000D01*
%TA.AperFunction,Conductor*%
G36*
X174700000Y-115800000D02*
G01*
X172850000Y-115895000D01*
X172550000Y-117125000D01*
X171425000Y-117700000D01*
X171425000Y-118225000D01*
X169775000Y-118350000D01*
X168400000Y-118350000D01*
X168100000Y-118550000D01*
X168100000Y-119825000D01*
X168525000Y-120200000D01*
X169800000Y-120175000D01*
X169800000Y-120825000D01*
X168450000Y-120825000D01*
X167550000Y-120325000D01*
X165225000Y-120350000D01*
X165200000Y-117075000D01*
X167600000Y-117100000D01*
X167925000Y-117900000D01*
X169825000Y-117850000D01*
X170625000Y-117600000D01*
X170900000Y-114850000D01*
X173250000Y-114750000D01*
X173900000Y-113875000D01*
X173900000Y-113225000D01*
X174725000Y-113175000D01*
X174700000Y-115800000D01*
G37*
%TD.AperFunction*%
%TO.N,Vin*%
X134825000Y-122175000D02*
X135175000Y-122950000D01*
X135175000Y-123575000D01*
X135150000Y-125950000D01*
X133850000Y-125950000D01*
X133125000Y-124550000D01*
X133125000Y-122237500D01*
X134544066Y-121527967D01*
X134598134Y-120969216D01*
X134675000Y-120950000D01*
X134825000Y-122175000D01*
%TA.AperFunction,Conductor*%
G36*
X134825000Y-122175000D02*
G01*
X135175000Y-122950000D01*
X135175000Y-123575000D01*
X135150000Y-125950000D01*
X133850000Y-125950000D01*
X133125000Y-124550000D01*
X133125000Y-122237500D01*
X134544066Y-121527967D01*
X134598134Y-120969216D01*
X134675000Y-120950000D01*
X134825000Y-122175000D01*
G37*
%TD.AperFunction*%
%TO.N,GND*%
X161150000Y-99925000D02*
X159975000Y-100000000D01*
X159325000Y-100200000D01*
X159050000Y-100925000D01*
X159025000Y-108025000D01*
X151500000Y-108000000D01*
X151450000Y-105575000D01*
X149225000Y-104800000D01*
X149150000Y-101600000D01*
X148025000Y-101550000D01*
X148000000Y-101550000D01*
X147950000Y-99550000D01*
X147375000Y-98550000D01*
X160825000Y-98375000D01*
X161150000Y-99925000D01*
%TA.AperFunction,Conductor*%
G36*
X161150000Y-99925000D02*
G01*
X159975000Y-100000000D01*
X159325000Y-100200000D01*
X159050000Y-100925000D01*
X159025000Y-108025000D01*
X151500000Y-108000000D01*
X151450000Y-105575000D01*
X149225000Y-104800000D01*
X149150000Y-101600000D01*
X148025000Y-101550000D01*
X148000000Y-101550000D01*
X147950000Y-99550000D01*
X147375000Y-98550000D01*
X160825000Y-98375000D01*
X161150000Y-99925000D01*
G37*
%TD.AperFunction*%
%TO.N,Net-(R3-Pad2)*%
X152750000Y-114375000D02*
X147700000Y-114425000D01*
X147700000Y-113925000D01*
X152775000Y-113925000D01*
X152750000Y-114375000D01*
%TA.AperFunction,Conductor*%
G36*
X152750000Y-114375000D02*
G01*
X147700000Y-114425000D01*
X147700000Y-113925000D01*
X152775000Y-113925000D01*
X152750000Y-114375000D01*
G37*
%TD.AperFunction*%
%TO.N,Net-(C18-Pad2)*%
X168350000Y-109650000D02*
X167450000Y-109650000D01*
X166250000Y-110300000D01*
X165650000Y-110300000D01*
X165650000Y-109700000D01*
X166450000Y-109250000D01*
X168350000Y-109250000D01*
X168350000Y-109650000D01*
%TA.AperFunction,Conductor*%
G36*
X168350000Y-109650000D02*
G01*
X167450000Y-109650000D01*
X166250000Y-110300000D01*
X165650000Y-110300000D01*
X165650000Y-109700000D01*
X166450000Y-109250000D01*
X168350000Y-109250000D01*
X168350000Y-109650000D01*
G37*
%TD.AperFunction*%
%TO.N,3v3*%
X134750000Y-115900000D02*
X135100000Y-115900000D01*
X135100000Y-116650000D01*
X134750000Y-117150000D01*
X134750000Y-118150000D01*
X134500000Y-118150000D01*
X134500000Y-117400000D01*
X134368750Y-117137499D01*
X134030433Y-117002172D01*
X133900000Y-116850000D01*
X132700000Y-116850000D01*
X132700000Y-115850000D01*
X134650000Y-115850000D01*
X134750000Y-115900000D01*
%TA.AperFunction,Conductor*%
G36*
X134750000Y-115900000D02*
G01*
X135100000Y-115900000D01*
X135100000Y-116650000D01*
X134750000Y-117150000D01*
X134750000Y-118150000D01*
X134500000Y-118150000D01*
X134500000Y-117400000D01*
X134368750Y-117137499D01*
X134030433Y-117002172D01*
X133900000Y-116850000D01*
X132700000Y-116850000D01*
X132700000Y-115850000D01*
X134650000Y-115850000D01*
X134750000Y-115900000D01*
G37*
%TD.AperFunction*%
%TO.N,GND*%
X169925000Y-102925000D02*
X168227833Y-103873416D01*
X168250000Y-103875000D01*
X168225000Y-103875000D01*
X167525000Y-103875000D01*
X166800000Y-103050000D01*
X167325000Y-102050000D01*
X169450000Y-102000000D01*
X169925000Y-102925000D01*
%TA.AperFunction,Conductor*%
G36*
X169925000Y-102925000D02*
G01*
X168227833Y-103873416D01*
X168250000Y-103875000D01*
X168225000Y-103875000D01*
X167525000Y-103875000D01*
X166800000Y-103050000D01*
X167325000Y-102050000D01*
X169450000Y-102000000D01*
X169925000Y-102925000D01*
G37*
%TD.AperFunction*%
%TO.N,Net-(C18-Pad2)*%
X167450000Y-104450000D02*
X168450000Y-104400000D01*
X169700000Y-105350000D01*
X169650000Y-109050000D01*
X169200000Y-109350000D01*
X168850000Y-109350000D01*
X168350000Y-109650000D01*
X168250000Y-109300000D01*
X169200000Y-108715384D01*
X169200000Y-105629998D01*
X168490910Y-104850000D01*
X167450000Y-104850000D01*
X166400000Y-104650000D01*
X166150000Y-104350000D01*
X165350000Y-104350000D01*
X165350000Y-103800000D01*
X166200000Y-103800000D01*
X167450000Y-104450000D01*
%TA.AperFunction,Conductor*%
G36*
X167450000Y-104450000D02*
G01*
X168450000Y-104400000D01*
X169700000Y-105350000D01*
X169650000Y-109050000D01*
X169200000Y-109350000D01*
X168850000Y-109350000D01*
X168350000Y-109650000D01*
X168250000Y-109300000D01*
X169200000Y-108715384D01*
X169200000Y-105629998D01*
X168490910Y-104850000D01*
X167450000Y-104850000D01*
X166400000Y-104650000D01*
X166150000Y-104350000D01*
X165350000Y-104350000D01*
X165350000Y-103800000D01*
X166200000Y-103800000D01*
X167450000Y-104450000D01*
G37*
%TD.AperFunction*%
%TO.N,Net-(U_polux1-L2)*%
X134150000Y-117500000D02*
X134150000Y-118150000D01*
X131250000Y-118600000D01*
X130500000Y-118600000D01*
X130650000Y-117300000D01*
X130850000Y-117300000D01*
X134150000Y-117500000D01*
%TA.AperFunction,Conductor*%
G36*
X134150000Y-117500000D02*
G01*
X134150000Y-118150000D01*
X131250000Y-118600000D01*
X130500000Y-118600000D01*
X130650000Y-117300000D01*
X130850000Y-117300000D01*
X134150000Y-117500000D01*
G37*
%TD.AperFunction*%
%TO.N,GND*%
X134125000Y-119950000D02*
X133425000Y-119975000D01*
X132750000Y-119750000D01*
X132750000Y-119075000D01*
X133450000Y-118625000D01*
X134100000Y-118625000D01*
X134125000Y-119950000D01*
%TA.AperFunction,Conductor*%
G36*
X134125000Y-119950000D02*
G01*
X133425000Y-119975000D01*
X132750000Y-119750000D01*
X132750000Y-119075000D01*
X133450000Y-118625000D01*
X134100000Y-118625000D01*
X134125000Y-119950000D01*
G37*
%TD.AperFunction*%
%TO.N,Vout3v3*%
X147550000Y-101250000D02*
X147600000Y-102000000D01*
X147850000Y-102100000D01*
X148600000Y-102100000D01*
X148600000Y-102500000D01*
X147800000Y-102500000D01*
X147500000Y-102800000D01*
X146300000Y-102700000D01*
X145200000Y-103750000D01*
X144700000Y-103700000D01*
X144700000Y-103300000D01*
X146000000Y-102250000D01*
X146050000Y-100400000D01*
X146800000Y-100400000D01*
X147550000Y-101250000D01*
%TA.AperFunction,Conductor*%
G36*
X147550000Y-101250000D02*
G01*
X147600000Y-102000000D01*
X147850000Y-102100000D01*
X148600000Y-102100000D01*
X148600000Y-102500000D01*
X147800000Y-102500000D01*
X147500000Y-102800000D01*
X146300000Y-102700000D01*
X145200000Y-103750000D01*
X144700000Y-103700000D01*
X144700000Y-103300000D01*
X146000000Y-102250000D01*
X146050000Y-100400000D01*
X146800000Y-100400000D01*
X147550000Y-101250000D01*
G37*
%TD.AperFunction*%
%TO.N,Net-(U_polux1-L1)*%
X133350000Y-120450000D02*
X134250000Y-120450000D01*
X134250000Y-121250000D01*
X130450000Y-121250000D01*
X130500000Y-120150000D01*
X131200000Y-120150000D01*
X133350000Y-120450000D01*
%TA.AperFunction,Conductor*%
G36*
X133350000Y-120450000D02*
G01*
X134250000Y-120450000D01*
X134250000Y-121250000D01*
X130450000Y-121250000D01*
X130500000Y-120150000D01*
X131200000Y-120150000D01*
X133350000Y-120450000D01*
G37*
%TD.AperFunction*%
D11*
X170050000Y-117300000D02*
X168250000Y-117300000D01*
X168200000Y-116350000D01*
X170050000Y-116350000D01*
X170050000Y-117300000D01*
%TA.AperFunction,NonConductor*%
G36*
X170050000Y-117300000D02*
G01*
X168250000Y-117300000D01*
X168200000Y-116350000D01*
X170050000Y-116350000D01*
X170050000Y-117300000D01*
G37*
%TD.AperFunction*%
D10*
%TO.N,GND*%
X136850000Y-118625000D02*
X136825000Y-119975000D01*
X136125000Y-120050000D01*
X136100000Y-118550000D01*
X136850000Y-118625000D01*
%TA.AperFunction,Conductor*%
G36*
X136850000Y-118625000D02*
G01*
X136825000Y-119975000D01*
X136125000Y-120050000D01*
X136100000Y-118550000D01*
X136850000Y-118625000D01*
G37*
%TD.AperFunction*%
%TO.N,3v3*%
X134250000Y-111500000D02*
X133400000Y-111450000D01*
X133250000Y-110900000D01*
X134250000Y-111500000D01*
%TA.AperFunction,Conductor*%
G36*
X134250000Y-111500000D02*
G01*
X133400000Y-111450000D01*
X133250000Y-110900000D01*
X134250000Y-111500000D01*
G37*
%TD.AperFunction*%
D11*
X171875000Y-123825000D02*
X171475000Y-123600000D01*
X171275000Y-123150000D01*
X172300000Y-123125000D01*
X171875000Y-123825000D01*
%TA.AperFunction,NonConductor*%
G36*
X171875000Y-123825000D02*
G01*
X171475000Y-123600000D01*
X171275000Y-123150000D01*
X172300000Y-123125000D01*
X171875000Y-123825000D01*
G37*
%TD.AperFunction*%
D10*
%TO.N,OUT+*%
X171300000Y-124200000D02*
X170800000Y-125300000D01*
X169600000Y-125300000D01*
X167750000Y-122950000D01*
X167700000Y-122200000D01*
X169550000Y-121850000D01*
X170250000Y-121850000D01*
X171300000Y-124200000D01*
%TA.AperFunction,Conductor*%
G36*
X171300000Y-124200000D02*
G01*
X170800000Y-125300000D01*
X169600000Y-125300000D01*
X167750000Y-122950000D01*
X167700000Y-122200000D01*
X169550000Y-121850000D01*
X170250000Y-121850000D01*
X171300000Y-124200000D01*
G37*
%TD.AperFunction*%
%TD*%
D12*
%TO.P,USB-C,*%
%TO.N,*%
X168985000Y-109940000D03*
X168985000Y-104160000D03*
D13*
%TO.P,USB-C,A1,GND*%
%TO.N,GND*%
X167910000Y-110250000D03*
%TO.P,USB-C,A4,VBUS*%
%TO.N,Net-(C18-Pad2)*%
X167910000Y-109450000D03*
D14*
%TO.P,USB-C,A5,CC1*%
%TO.N,Net-(J1-CC1)*%
X167910000Y-108300000D03*
%TO.P,USB-C,A6,D+*%
%TO.N,D+*%
X167910000Y-107300000D03*
%TO.P,USB-C,A7,D-*%
%TO.N,D-*%
X167910000Y-106800000D03*
%TO.P,USB-C,A8,SBU1*%
%TO.N,unconnected-(J1-SBU1-PadA8)*%
X167910000Y-105800000D03*
D13*
%TO.P,USB-C,A9,VBUS*%
%TO.N,Net-(C18-Pad2)*%
X167910000Y-104650000D03*
%TO.P,USB-C,A12,GND*%
%TO.N,GND*%
X167910000Y-103850000D03*
%TO.P,USB-C,B1,GND*%
X167910000Y-103850000D03*
%TO.P,USB-C,B4,VBUS*%
%TO.N,Net-(C18-Pad2)*%
X167910000Y-104650000D03*
D14*
%TO.P,USB-C,B5,CC2*%
%TO.N,Net-(J1-CC2)*%
X167910000Y-105300000D03*
%TO.P,USB-C,B6,D+*%
%TO.N,D+*%
X167910000Y-106300000D03*
%TO.P,USB-C,B7,D-*%
%TO.N,D-*%
X167910000Y-107800000D03*
%TO.P,USB-C,B8,SBU2*%
%TO.N,unconnected-(J1-SBU2-PadB8)*%
X167910000Y-108800000D03*
D13*
%TO.P,USB-C,B9,VBUS*%
%TO.N,Net-(C18-Pad2)*%
X167910000Y-109450000D03*
%TO.P,USB-C,B12,GND*%
%TO.N,GND*%
X167910000Y-110250000D03*
D15*
%TO.P,USB-C,S1,SHIELD*%
X168485000Y-111370000D03*
D16*
X172665000Y-111370000D03*
D15*
X168485000Y-102730000D03*
D16*
X172665000Y-102730000D03*
%TD*%
D17*
%TO.P,switch_ON/OFF,*%
%TO.N,*%
X174200000Y-81710000D03*
X174200000Y-79500000D03*
D18*
X172050000Y-80600000D03*
X169050000Y-80600000D03*
D17*
X166900000Y-81710000D03*
X166900000Y-79500000D03*
D19*
%TO.P,switch_ON/OFF,1,1*%
%TO.N,Vout3v3*%
X172800000Y-82360000D03*
%TO.P,switch_ON/OFF,2,2*%
%TO.N,3v3*%
X169800000Y-82360000D03*
%TO.P,switch_ON/OFF,3,3*%
%TO.N,Vout3v3*%
X168300000Y-82360000D03*
%TD*%
D18*
%TO.P,MicroSD,*%
%TO.N,*%
X131587500Y-97150000D03*
X131587500Y-89150000D03*
D20*
%TO.P,MicroSD,1,1*%
%TO.N,unconnected-(U2-Pad1)*%
X142087500Y-96350000D03*
%TO.P,MicroSD,2,2*%
%TO.N,Net-(R18-Pad1)*%
X142087500Y-95250000D03*
%TO.P,MicroSD,3,3*%
%TO.N,SPI MOSI*%
X142087500Y-94150000D03*
%TO.P,MicroSD,4,4*%
%TO.N,Vout3v3*%
X142087500Y-93050000D03*
%TO.P,MicroSD,5,5*%
%TO.N,SPI SCK*%
X142087500Y-91950000D03*
%TO.P,MicroSD,6,6*%
%TO.N,GND*%
X142087500Y-90850000D03*
%TO.P,MicroSD,7,7*%
%TO.N,SPI MISO*%
X142087500Y-89750000D03*
%TO.P,MicroSD,8,8*%
%TO.N,unconnected-(U2-Pad8)*%
X142087500Y-88650000D03*
%TO.P,MicroSD,9,CD*%
%TO.N,Net-(U2-CD)*%
X142087500Y-87550000D03*
D21*
%TO.P,MicroSD,SH,SH*%
%TO.N,GND*%
X131987500Y-101850000D03*
D22*
X141587500Y-100950000D03*
D21*
X131987500Y-86350000D03*
D23*
X141587500Y-86350000D03*
%TD*%
D24*
%TO.P,R4,1,1*%
%TO.N,SW-reset*%
X129625000Y-84700000D03*
%TO.P,R4,2,2*%
%TO.N,Net-(C3-Pad1)*%
X127975000Y-84700000D03*
%TD*%
D25*
%TO.P,R13,1,1*%
%TO.N,Net-(U_polux1-FB)*%
X137875000Y-117700000D03*
%TO.P,R13,2,2*%
%TO.N,3v3*%
X139525000Y-117700000D03*
%TD*%
D26*
%TO.P,R24,1,1*%
%TO.N,Net-(U_TC4056A1-CHRG)*%
X138850000Y-83125000D03*
%TO.P,R24,2,2*%
%TO.N,Net-(LED2-K)*%
X138850000Y-84775000D03*
%TD*%
D27*
%TO.P,R16,1,1*%
%TO.N,Net-(J1-CC1)*%
X166410000Y-108650000D03*
%TO.P,R16,2,2*%
%TO.N,GND*%
X165390000Y-108650000D03*
%TD*%
D28*
%TO.P,R21,1,1*%
%TO.N,CS \u00C9cran*%
X143900000Y-85400000D03*
%TO.P,R21,2,2*%
%TO.N,Net-(U3-CS)*%
X143900000Y-83750000D03*
%TD*%
D29*
%TO.P,U1,1,D+*%
%TO.N,D+*%
X161475000Y-107150000D03*
%TO.P,U1,2,D-*%
%TO.N,D-*%
X161475000Y-107850000D03*
%TO.P,U1,3,GND*%
%TO.N,GND*%
X162325000Y-107500000D03*
%TD*%
D30*
%TO.P,C4,1,1*%
%TO.N,TENSION*%
X137975000Y-106300000D03*
%TO.P,C4,2,2*%
%TO.N,GND*%
X136425000Y-106300000D03*
%TD*%
D31*
%TO.P,C18,1,1*%
%TO.N,GND*%
X164425000Y-110000000D03*
%TO.P,C18,2,2*%
%TO.N,Net-(C18-Pad2)*%
X165975000Y-110000000D03*
%TD*%
D32*
%TO.P,GND,1,1*%
%TO.N,GND*%
X127300000Y-126600000D03*
%TD*%
D33*
%TO.P,U_polux1,1,L1*%
%TO.N,Net-(U_polux1-L1)*%
X134125000Y-121060000D03*
D34*
X134125000Y-120775000D03*
D33*
%TO.P,U_polux1,2,VIN*%
%TO.N,Vin*%
X134625000Y-121060000D03*
D34*
X134625000Y-120775000D03*
D33*
%TO.P,U_polux1,3,EN*%
%TO.N,Net-(U_polux1-EN)*%
X135125000Y-121060000D03*
D34*
X135125000Y-120775000D03*
D33*
%TO.P,U_polux1,4,PS/SYNC*%
%TO.N,GND*%
X135625000Y-121060000D03*
D34*
X135625000Y-120775000D03*
D33*
%TO.P,U_polux1,5,PG*%
%TO.N,Net-(U_polux1-PG)*%
X136125000Y-121060000D03*
D34*
X136125000Y-120775000D03*
%TO.P,U_polux1,6,VAUX*%
%TO.N,Net-(U_polux1-VAUX)*%
X136125000Y-117825000D03*
D33*
X136125000Y-117540000D03*
D34*
%TO.P,U_polux1,7,GND*%
%TO.N,GND*%
X135625000Y-117825000D03*
D33*
X135625000Y-117540000D03*
D34*
%TO.P,U_polux1,8,FB*%
%TO.N,Net-(U_polux1-FB)*%
X135125000Y-117825000D03*
D33*
X135125000Y-117540000D03*
D34*
%TO.P,U_polux1,9,VOUT*%
%TO.N,3v3*%
X134625000Y-117825000D03*
D33*
X134625000Y-117540000D03*
D34*
%TO.P,U_polux1,10,L2*%
%TO.N,Net-(U_polux1-L2)*%
X134125000Y-117825000D03*
D33*
X134125000Y-117540000D03*
D35*
%TO.P,U_polux1,11,PAD*%
%TO.N,GND*%
X133700000Y-119900000D03*
D36*
X133700000Y-119900000D03*
D35*
X136550000Y-119900000D03*
D36*
X136550000Y-119900000D03*
D37*
X134565000Y-119735000D03*
X135685000Y-119735000D03*
D35*
X133700000Y-119500000D03*
D36*
X133700000Y-119500000D03*
D35*
X136550000Y-119500000D03*
D36*
X136550000Y-119500000D03*
D38*
X135125000Y-119300000D03*
D35*
X133700000Y-119100000D03*
D36*
X133700000Y-119100000D03*
D35*
X136550000Y-119100000D03*
D36*
X136550000Y-119100000D03*
D37*
X134565000Y-118865000D03*
X135685000Y-118865000D03*
D35*
X133700000Y-118700000D03*
D36*
X133700000Y-118700000D03*
D35*
X136550000Y-118700000D03*
D36*
X136550000Y-118700000D03*
%TD*%
D31*
%TO.P,C12,1,1*%
%TO.N,GND*%
X131525000Y-116200000D03*
%TO.P,C12,2,2*%
%TO.N,3v3*%
X133075000Y-116200000D03*
%TD*%
D26*
%TO.P,R10,1,1*%
%TO.N,GND*%
X174400000Y-90500000D03*
%TO.P,R10,2,2*%
%TO.N,Net-(Q1-S)*%
X174400000Y-92150000D03*
%TD*%
D39*
%TO.P,S1,1,1*%
%TO.N,Net-(R3-Pad2)*%
X147024999Y-114150000D03*
X153524999Y-114150000D03*
%TO.P,S1,2,2*%
%TO.N,GND*%
X147024999Y-118650000D03*
X153524999Y-118650000D03*
%TD*%
D40*
%TO.P,C11,1,1*%
%TO.N,GND*%
X134600000Y-114825000D03*
%TO.P,C11,2,2*%
%TO.N,3v3*%
X134600000Y-116375000D03*
%TD*%
D31*
%TO.P,C15,1,1*%
%TO.N,GND*%
X131525000Y-113200000D03*
%TO.P,C15,2,2*%
%TO.N,3v3*%
X133075000Y-113200000D03*
%TD*%
D41*
%TO.P,LED_RGB1,1,DO*%
%TO.N,unconnected-(LED_RGB1-DO-Pad1)*%
X164465000Y-81600000D03*
%TO.P,LED_RGB1,2,GND*%
%TO.N,GND*%
X164465000Y-80500000D03*
%TO.P,LED_RGB1,3,DI*%
%TO.N,LEDrgb*%
X162635000Y-80500000D03*
%TO.P,LED_RGB1,4,VDD*%
%TO.N,Net-(LED_RGB1-VDD)*%
X162635000Y-81600000D03*
%TD*%
D42*
%TO.P,D1,1,C*%
%TO.N,Vin*%
X169100000Y-99900000D03*
%TO.P,D1,2,A*%
%TO.N,+5V*%
X165800000Y-99900000D03*
%TD*%
D43*
%TO.P,U_coil_polux1,1,1*%
%TO.N,Net-(U_polux1-L1)*%
X129300000Y-121165000D03*
D44*
%TO.P,U_coil_polux1,2,2*%
%TO.N,Net-(U_polux1-L2)*%
X129300000Y-117635000D03*
%TD*%
D45*
%TO.P,Q1,1,G*%
%TO.N,Net-(Q1-G)*%
X171000000Y-91900000D03*
%TO.P,Q1,2,S*%
%TO.N,Net-(Q1-S)*%
X172900000Y-91900000D03*
%TO.P,Q1,3,D*%
%TO.N,GND*%
X171950000Y-90025000D03*
%TD*%
D26*
%TO.P,R14,1,1*%
%TO.N,GND*%
X140100000Y-114650000D03*
%TO.P,R14,2,2*%
%TO.N,Net-(U_polux1-FB)*%
X140100000Y-116300000D03*
%TD*%
D25*
%TO.P,R18,1,1*%
%TO.N,Net-(R18-Pad1)*%
X143575000Y-95300000D03*
%TO.P,R18,2,2*%
%TO.N,CS_sdcard*%
X145225000Y-95300000D03*
%TD*%
D46*
%TO.P,SW1,1,1*%
%TO.N,GND*%
X127400000Y-79800000D03*
%TO.P,SW1,2,2*%
%TO.N,Net-(C3-Pad1)*%
X127400000Y-83200000D03*
%TD*%
D26*
%TO.P,R6,1,1*%
%TO.N,TENSION*%
X139500000Y-104775000D03*
%TO.P,R6,2,2*%
%TO.N,OUT+*%
X139500000Y-106425000D03*
%TD*%
D30*
%TO.P,C16,1,1*%
%TO.N,GND*%
X136075000Y-113400000D03*
%TO.P,C16,2,2*%
%TO.N,3v3*%
X134525000Y-113400000D03*
%TD*%
D47*
%TO.P,charge,1,A*%
%TO.N,+5V*%
X137950000Y-81235000D03*
%TO.P,charge,2,K*%
%TO.N,Net-(LED2-K)*%
X137950000Y-80265000D03*
%TD*%
D40*
%TO.P,C3,1,1*%
%TO.N,Net-(C3-Pad1)*%
X126500000Y-84725000D03*
%TO.P,C3,2,2*%
%TO.N,GND*%
X126500000Y-86275000D03*
%TD*%
D24*
%TO.P,R19,1,1*%
%TO.N,CD*%
X145225000Y-87600000D03*
%TO.P,R19,2,2*%
%TO.N,Net-(U2-CD)*%
X143575000Y-87600000D03*
%TD*%
D48*
%TO.P,L1,1,1*%
%TO.N,Net-(C18-Pad2)*%
X165800000Y-104112500D03*
%TO.P,L1,2,2*%
%TO.N,+5V*%
X165800000Y-101987500D03*
%TD*%
D24*
%TO.P,R3,1,1*%
%TO.N,SW-1*%
X157325000Y-114200000D03*
%TO.P,R3,2,2*%
%TO.N,Net-(R3-Pad2)*%
X155675000Y-114200000D03*
%TD*%
D32*
%TO.P,5V+1,1,1*%
%TO.N,+5V*%
X143900000Y-119750000D03*
%TD*%
D26*
%TO.P,R26,1,1*%
%TO.N,Net-(U_TC4056A1-STDBY)*%
X137350000Y-83125000D03*
%TO.P,R26,2,2*%
%TO.N,Net-(LED3-K)*%
X137350000Y-84775000D03*
%TD*%
D32*
%TO.P,VIN,1,1*%
%TO.N,Vin*%
X134500000Y-126500000D03*
%TD*%
D25*
%TO.P,R11,1,1*%
%TO.N,Vin*%
X167775000Y-92100000D03*
%TO.P,R11,2,2*%
%TO.N,Net-(Q1-S)*%
X169425000Y-92100000D03*
%TD*%
%TO.P,R1,1,1*%
%TO.N,Vout3v3*%
X144875000Y-103700000D03*
%TO.P,R1,2,2*%
%TO.N,GPIO2*%
X146525000Y-103700000D03*
%TD*%
D40*
%TO.P,C10,1,1*%
%TO.N,GND*%
X136100000Y-114825000D03*
%TO.P,C10,2,2*%
%TO.N,Net-(U_polux1-FB)*%
X136100000Y-116375000D03*
%TD*%
D30*
%TO.P,C7,1,1*%
%TO.N,GND*%
X136425000Y-123225000D03*
%TO.P,C7,2,2*%
%TO.N,Vin*%
X134875000Y-123225000D03*
%TD*%
D49*
%TO.P,SCREEN,1,GND*%
%TO.N,GND*%
X159164999Y-81300000D03*
D50*
%TO.P,SCREEN,2,VCC*%
%TO.N,Vout3v3*%
X156624999Y-81300000D03*
%TO.P,SCREEN,3,SCL*%
%TO.N,SPI SCK*%
X154084999Y-81300000D03*
%TO.P,SCREEN,4,SDA*%
%TO.N,SPI MOSI*%
X151544999Y-81300000D03*
%TO.P,SCREEN,5,RES*%
%TO.N,Net-(U3-RES)*%
X149004999Y-81300000D03*
%TO.P,SCREEN,6,DC*%
%TO.N,\u00C9cran D{slash}C*%
X146464999Y-81300000D03*
%TO.P,SCREEN,7,CS*%
%TO.N,Net-(U3-CS)*%
X143924999Y-81300000D03*
%TO.P,SCREEN,8,BLK*%
%TO.N,Vout3v3*%
X141384999Y-81300000D03*
%TD*%
D26*
%TO.P,R23,1,1*%
%TO.N,GND*%
X170978652Y-117870000D03*
%TO.P,R23,2,2*%
%TO.N,Net-(U_TC4056A1-PROG)*%
X170978652Y-119520000D03*
%TD*%
D51*
%TO.P,U_TC4056A1,1,TEMP*%
%TO.N,GND*%
X169121348Y-120605000D03*
D52*
X166400000Y-118700000D03*
D51*
%TO.P,U_TC4056A1,2,PROG*%
%TO.N,Net-(U_TC4056A1-PROG)*%
X169121348Y-119335000D03*
%TO.P,U_TC4056A1,3,GND*%
%TO.N,GND*%
X169121348Y-118065000D03*
%TO.P,U_TC4056A1,4,VCC*%
%TO.N,+5V*%
X169121348Y-116795000D03*
%TO.P,U_TC4056A1,5,BAT*%
%TO.N,OUT+*%
X163678652Y-116795000D03*
%TO.P,U_TC4056A1,6,STDBY*%
%TO.N,Net-(U_TC4056A1-STDBY)*%
X163678652Y-118065000D03*
%TO.P,U_TC4056A1,7,CHRG*%
%TO.N,Net-(U_TC4056A1-CHRG)*%
X163678652Y-119335000D03*
%TO.P,U_TC4056A1,8,CE*%
%TO.N,+5V*%
X163678652Y-120605000D03*
%TD*%
D53*
%TO.P,R15,1,1*%
%TO.N,GND*%
X165390000Y-105450000D03*
%TO.P,R15,2,2*%
%TO.N,Net-(J1-CC2)*%
X166410000Y-105450000D03*
%TD*%
D31*
%TO.P,C8,1,1*%
%TO.N,GND*%
X131875000Y-122725000D03*
%TO.P,C8,2,2*%
%TO.N,Vin*%
X133425000Y-122725000D03*
%TD*%
D40*
%TO.P,C1,1,1*%
%TO.N,GND*%
X146400000Y-99125000D03*
%TO.P,C1,2,2*%
%TO.N,Vout3v3*%
X146400000Y-100675000D03*
%TD*%
D24*
%TO.P,R20,1,1*%
%TO.N,SW-reset*%
X146500000Y-106400000D03*
%TO.P,R20,2,2*%
%TO.N,Net-(U3-RES)*%
X144850000Y-106400000D03*
%TD*%
%TO.P,R5,1*%
%TO.N,Boot Mode Select*%
X132725000Y-83550000D03*
%TO.P,R5,2*%
%TO.N,Net-(BMS1-B)*%
X131075000Y-83550000D03*
%TD*%
D31*
%TO.P,C6,1,1*%
%TO.N,GND*%
X131850000Y-124225000D03*
%TO.P,C6,2,2*%
%TO.N,Vin*%
X133400000Y-124225000D03*
%TD*%
D54*
%TO.P,C22,1,1*%
%TO.N,GND*%
X173300000Y-124075000D03*
%TO.P,C22,2,2*%
%TO.N,VCCfhd*%
X173300000Y-122525000D03*
%TD*%
D49*
%TO.P,J2,1,Pin_1*%
%TO.N,GND*%
X156624999Y-123100000D03*
D50*
%TO.P,J2,2,Pin_2*%
%TO.N,CS Console*%
X154084999Y-123100000D03*
%TO.P,J2,3,Pin_3*%
%TO.N,SPI MOSI*%
X151544999Y-123100000D03*
%TO.P,J2,4,Pin_4*%
%TO.N,SPI MISO*%
X149004999Y-123100000D03*
%TO.P,J2,5,Pin_5*%
%TO.N,SPI SCK*%
X146464999Y-123100000D03*
%TO.P,J2,6,Pin_6*%
%TO.N,+5V*%
X143924999Y-123100000D03*
%TD*%
D55*
%TO.P,U_DW01A1,1,OD*%
%TO.N,Net-(Q3-G2)*%
X174400000Y-118362500D03*
%TO.P,U_DW01A1,2,VM*%
%TO.N,Net-(U_DW01A1-VM)*%
X173450000Y-118362500D03*
%TO.P,U_DW01A1,3,OC*%
%TO.N,Net-(Q3-G1)*%
X172500000Y-118362500D03*
%TO.P,U_DW01A1,4,NC*%
%TO.N,unconnected-(U_DW01A1-NC-Pad4)*%
X172500000Y-120637500D03*
%TO.P,U_DW01A1,5,VCC*%
%TO.N,VCCfhd*%
X173450000Y-120637500D03*
%TO.P,U_DW01A1,6,GND*%
%TO.N,GND*%
X174400000Y-120637500D03*
%TD*%
D31*
%TO.P,C2,1,1*%
%TO.N,GND*%
X144925000Y-102200000D03*
%TO.P,C2,2,2*%
%TO.N,Vout3v3*%
X146475000Y-102200000D03*
%TD*%
%TO.P,C13,1,1*%
%TO.N,GND*%
X131525000Y-111700000D03*
%TO.P,C13,2,2*%
%TO.N,3v3*%
X133075000Y-111700000D03*
%TD*%
D56*
%TO.P,BMS,1,A*%
%TO.N,Vout3v3*%
X130500000Y-80300000D03*
D57*
%TO.P,BMS,2,B*%
%TO.N,Net-(BMS1-B)*%
X131950000Y-80300000D03*
%TD*%
D53*
%TO.P,R8,1,1*%
%TO.N,Vin*%
X134615000Y-122000000D03*
%TO.P,R8,2,2*%
%TO.N,Net-(U_polux1-EN)*%
X135635000Y-122000000D03*
%TD*%
D25*
%TO.P,R7,1,1*%
%TO.N,Vout3v3*%
X162725000Y-83250000D03*
%TO.P,R7,2,2*%
%TO.N,Net-(LED_RGB1-VDD)*%
X164375000Y-83250000D03*
%TD*%
D58*
%TO.P,Q2,1,G*%
%TO.N,Net-(Q1-S)*%
X166150000Y-90000000D03*
%TO.P,Q2,2,S*%
%TO.N,Vin*%
X164250000Y-90000000D03*
%TO.P,Q2,3,D*%
%TO.N,OUT+*%
X165200000Y-91875000D03*
%TD*%
D25*
%TO.P,R2,1,1*%
%TO.N,GND*%
X136375000Y-104800000D03*
%TO.P,R2,2,2*%
%TO.N,TENSION*%
X138025000Y-104800000D03*
%TD*%
D26*
%TO.P,R12,1,1*%
%TO.N,3v3*%
X137900000Y-119175000D03*
%TO.P,R12,2,2*%
%TO.N,Net-(U_polux1-PG)*%
X137900000Y-120825000D03*
%TD*%
D31*
%TO.P,C23,1,1*%
%TO.N,GND*%
X166550000Y-122600000D03*
%TO.P,C23,2,2*%
%TO.N,OUT+*%
X168100000Y-122600000D03*
%TD*%
D59*
%TO.P,ESP32-C3,1,GND*%
%TO.N,GND*%
X148200002Y-100700000D03*
%TO.P,ESP32-C3,2,GND*%
X148200002Y-101500001D03*
%TO.P,ESP32-C3,3,3V3*%
%TO.N,Vout3v3*%
X148200002Y-102300000D03*
%TO.P,ESP32-C3,4,NC*%
%TO.N,unconnected-(ESP32-C1-NC-Pad4)*%
X148200002Y-103100001D03*
%TO.P,ESP32-C3,5,IO2*%
%TO.N,GPIO2*%
X148200002Y-103899999D03*
%TO.P,ESP32-C3,6,IO3*%
%TO.N,TENSION*%
X148200002Y-104700000D03*
%TO.P,ESP32-C3,7,NC*%
%TO.N,unconnected-(ESP32-C1-NC-Pad7)*%
X148200002Y-105500001D03*
%TO.P,ESP32-C3,8,EN*%
%TO.N,SW-reset*%
X148200002Y-106299999D03*
%TO.P,ESP32-C3,9,NC*%
%TO.N,unconnected-(ESP32-C1-NC-Pad9)*%
X148200002Y-107100000D03*
%TO.P,ESP32-C3,10,NC*%
%TO.N,unconnected-(ESP32-C1-NC-Pad10)*%
X148200002Y-107899999D03*
%TO.P,ESP32-C3,11,GND*%
%TO.N,GND*%
X148200002Y-108700000D03*
D60*
%TO.P,ESP32-C3,12,IO0*%
%TO.N,\u00C9cran D{slash}C*%
X149299999Y-109600000D03*
%TO.P,ESP32-C3,13,IO1*%
%TO.N,CS \u00C9cran*%
X150100000Y-109600000D03*
%TO.P,ESP32-C3,14,GND*%
%TO.N,GND*%
X150900001Y-109600000D03*
%TO.P,ESP32-C3,15,NC*%
%TO.N,unconnected-(ESP32-C1-NC-Pad15)*%
X151700000Y-109600000D03*
%TO.P,ESP32-C3,16,IO10*%
%TO.N,CS_sdcard*%
X152500001Y-109600000D03*
%TO.P,ESP32-C3,17,NC*%
%TO.N,unconnected-(ESP32-C1-NC-Pad17)*%
X153299999Y-109600000D03*
%TO.P,ESP32-C3,18,IO4*%
%TO.N,CS Console*%
X154100000Y-109600000D03*
%TO.P,ESP32-C3,19,IO5*%
%TO.N,SPI MOSI*%
X154900001Y-109600000D03*
%TO.P,ESP32-C3,20,IO6*%
%TO.N,SPI SCK*%
X155699999Y-109600000D03*
%TO.P,ESP32-C3,21,IO7*%
%TO.N,SPI MISO*%
X156500000Y-109600000D03*
%TO.P,ESP32-C3,22,IO8*%
%TO.N,CD*%
X157299999Y-109600000D03*
%TO.P,ESP32-C3,23,IO9*%
%TO.N,Boot Mode Select*%
X158100000Y-109600000D03*
%TO.P,ESP32-C3,24,NC*%
%TO.N,unconnected-(ESP32-C1-NC-Pad24)*%
X158899998Y-109600000D03*
D59*
%TO.P,ESP32-C3,25,NC*%
%TO.N,unconnected-(ESP32-C1-NC-Pad25)*%
X159999998Y-108700000D03*
%TO.P,ESP32-C3,26,IO18*%
%TO.N,D-*%
X159999998Y-107899999D03*
%TO.P,ESP32-C3,27,IO19*%
%TO.N,D+*%
X159999998Y-107100000D03*
%TO.P,ESP32-C3,28,NC*%
%TO.N,unconnected-(ESP32-C1-NC-Pad28)*%
X159999998Y-106299999D03*
%TO.P,ESP32-C3,29,NC*%
%TO.N,unconnected-(ESP32-C1-NC-Pad29)*%
X159999998Y-105500001D03*
%TO.P,ESP32-C3,30,RXD0*%
%TO.N,SW-1*%
X159999998Y-104700000D03*
%TO.P,ESP32-C3,31,TXD0*%
%TO.N,LEDrgb*%
X159999998Y-103899999D03*
%TO.P,ESP32-C3,32,NC*%
%TO.N,unconnected-(ESP32-C1-NC-Pad32)*%
X159999998Y-103100001D03*
%TO.P,ESP32-C3,33,NC*%
%TO.N,unconnected-(ESP32-C1-NC-Pad33)*%
X159999998Y-102300000D03*
%TO.P,ESP32-C3,34,NC*%
%TO.N,unconnected-(ESP32-C1-NC-Pad34)*%
X159999998Y-101500001D03*
%TO.P,ESP32-C3,35,NC*%
%TO.N,unconnected-(ESP32-C1-NC-Pad35)*%
X159999998Y-100700000D03*
D60*
%TO.P,ESP32-C3,36,GND*%
%TO.N,GND*%
X158900001Y-99800000D03*
%TO.P,ESP32-C3,37,GND*%
X158100000Y-99800000D03*
%TO.P,ESP32-C3,38,GND*%
X157299999Y-99800000D03*
%TO.P,ESP32-C3,39,GND*%
X156500000Y-99800000D03*
%TO.P,ESP32-C3,40,GND*%
X155699999Y-99800000D03*
%TO.P,ESP32-C3,41,GND*%
X154900001Y-99800000D03*
%TO.P,ESP32-C3,42,GND*%
X154100000Y-99800000D03*
%TO.P,ESP32-C3,43,GND*%
X153299999Y-99800000D03*
%TO.P,ESP32-C3,44,GND*%
X152500001Y-99800000D03*
%TO.P,ESP32-C3,45,GND*%
X151700000Y-99800000D03*
%TO.P,ESP32-C3,46,GND*%
X150900001Y-99800000D03*
%TO.P,ESP32-C3,47,GND*%
X150100000Y-99800000D03*
%TO.P,ESP32-C3,48,GND*%
X149300002Y-99800000D03*
D61*
%TO.P,ESP32-C3,49,GND*%
X152125000Y-102725000D03*
X152125000Y-104700000D03*
X152125000Y-106675000D03*
X154100000Y-102725000D03*
X154100000Y-104700000D03*
X154100000Y-106675000D03*
X156075000Y-102725000D03*
X156075000Y-104700000D03*
X156075000Y-106675000D03*
D62*
%TO.P,ESP32-C3,50,GND*%
X160050000Y-99750000D03*
%TO.P,ESP32-C3,51,GND*%
X160050000Y-109650000D03*
%TO.P,ESP32-C3,52,GND*%
X148150000Y-109650000D03*
%TO.P,ESP32-C3,53,GND*%
X148150000Y-99750000D03*
%TD*%
D30*
%TO.P,C5,1,1*%
%TO.N,GND*%
X135775000Y-82900000D03*
%TO.P,C5,2,2*%
%TO.N,Vout3v3*%
X134225000Y-82900000D03*
%TD*%
D63*
%TO.P,Q3,1,D12*%
%TO.N,unconnected-(Q3-D12-Pad1)*%
X159703652Y-120262500D03*
%TO.P,Q3,2,S1*%
%TO.N,GND*%
X160353652Y-120262500D03*
%TO.P,Q3,3,S1*%
X161003652Y-120262500D03*
%TO.P,Q3,4,G1*%
%TO.N,Net-(Q3-G1)*%
X161653652Y-120262500D03*
%TO.P,Q3,5,G2*%
%TO.N,Net-(Q3-G2)*%
X161653652Y-114537500D03*
%TO.P,Q3,6,S2*%
%TO.N,GND*%
X161003652Y-114537500D03*
%TO.P,Q3,7,S2*%
X160353652Y-114537500D03*
%TO.P,Q3,8,D12*%
%TO.N,unconnected-(Q3-D12-Pad8)*%
X159703652Y-114537500D03*
%TD*%
D28*
%TO.P,R22,1,1*%
%TO.N,Net-(U_DW01A1-VM)*%
X173578652Y-116720000D03*
%TO.P,R22,2,2*%
%TO.N,GND*%
X173578652Y-115070000D03*
%TD*%
D31*
%TO.P,C19,1*%
%TO.N,Vout3v3*%
X143625000Y-93100000D03*
%TO.P,C19,2*%
%TO.N,GND*%
X145175000Y-93100000D03*
%TD*%
D25*
%TO.P,R25,1,1*%
%TO.N,OUT+*%
X169850000Y-122300000D03*
%TO.P,R25,2,2*%
%TO.N,VCCfhd*%
X171500000Y-122300000D03*
%TD*%
D32*
%TO.P,3V3,1,1*%
%TO.N,3v3*%
X131200000Y-109400000D03*
%TD*%
D25*
%TO.P,R9,1,1*%
%TO.N,Vin*%
X167675000Y-90500000D03*
%TO.P,R9,2,2*%
%TO.N,Net-(Q1-G)*%
X169325000Y-90500000D03*
%TD*%
%TO.P,R17,1,1*%
%TO.N,Net-(C18-Pad2)*%
X169550000Y-113600000D03*
%TO.P,R17,2,2*%
%TO.N,Net-(LED1-+)*%
X171200000Y-113600000D03*
%TD*%
D30*
%TO.P,C14,1,1*%
%TO.N,GND*%
X136075000Y-111900000D03*
%TO.P,C14,2,2*%
%TO.N,3v3*%
X134525000Y-111900000D03*
%TD*%
D64*
%TO.P,BAT-,1,1*%
%TO.N,GND*%
X165500000Y-125300000D03*
%TD*%
%TO.P,BAT+,1,1*%
%TO.N,OUT+*%
X170800000Y-125300000D03*
%TD*%
D31*
%TO.P,C17,1,1*%
%TO.N,GND*%
X131550000Y-114700000D03*
%TO.P,C17,2,2*%
%TO.N,3v3*%
X133100000Y-114700000D03*
%TD*%
%TO.P,C20,1*%
%TO.N,GND*%
X140425000Y-83800000D03*
%TO.P,C20,2*%
%TO.N,Vout3v3*%
X141975000Y-83800000D03*
%TD*%
D54*
%TO.P,C9,1,1*%
%TO.N,Net-(U_polux1-VAUX)*%
X137600000Y-116200000D03*
%TO.P,C9,2,2*%
%TO.N,GND*%
X137600000Y-114650000D03*
%TD*%
D31*
%TO.P,C21,1,1*%
%TO.N,+5V*%
X169703652Y-115195000D03*
%TO.P,C21,2,2*%
%TO.N,GND*%
X171253652Y-115195000D03*
%TD*%
D47*
%TO.P,charged,1,A*%
%TO.N,+5V*%
X134900000Y-81185000D03*
%TO.P,charged,2,K*%
%TO.N,Net-(LED3-K)*%
X134900000Y-80215000D03*
%TD*%
D65*
%TO.P,LED1,1,-*%
%TO.N,GND*%
X174287500Y-113600000D03*
%TO.P,LED1,2,+*%
%TO.N,Net-(LED1-+)*%
X172712500Y-113600000D03*
%TD*%
D66*
%TO.N,Vin*%
X133400000Y-124225000D03*
X134500000Y-126500000D03*
X134225000Y-126825000D03*
%TO.N,GND*%
X165500000Y-125300000D03*
X140425000Y-83800000D03*
X164725000Y-115200000D03*
X142087500Y-90850000D03*
X127525000Y-81450000D03*
X135775000Y-82900000D03*
D67*
X162200000Y-107500000D03*
D66*
X141425000Y-103125000D03*
%TO.N,OUT+*%
X141600000Y-106400000D03*
X165200000Y-91875000D03*
X161900000Y-109100000D03*
X163700000Y-116900000D03*
X170800000Y-125300000D03*
%TO.N,+5V*%
X137200000Y-80900000D03*
X166050000Y-121250000D03*
X169700000Y-115200000D03*
X165750000Y-102050000D03*
%TO.N,Vout3v3*%
X162725000Y-83250000D03*
X142100000Y-93050000D03*
X130600000Y-80300000D03*
X134225000Y-82900000D03*
X144600000Y-98400000D03*
X172800000Y-82360000D03*
X168300000Y-82400000D03*
%TO.N,Vin*%
X134875000Y-123225000D03*
X164250000Y-90000000D03*
X167800000Y-92100000D03*
%TO.N,Net-(U_polux1-VAUX)*%
X136700000Y-117800000D03*
X137600000Y-115600000D03*
%TO.N,SPI MOSI*%
X142100000Y-94200000D03*
X154825999Y-110825000D03*
%TO.N,SPI MISO*%
X142087500Y-89750000D03*
X156500000Y-110400000D03*
%TO.N,SPI SCK*%
X142087500Y-91950000D03*
X155700000Y-109000000D03*
%TO.N,CS Console*%
X154100000Y-108900000D03*
%TO.N,LEDrgb*%
X160000000Y-103900000D03*
X162400000Y-87050000D03*
%TO.N,Net-(Q3-G2)*%
X167500000Y-116400000D03*
X174400000Y-118362500D03*
%TO.N,Net-(Q3-G1)*%
X163200000Y-122800000D03*
X172500000Y-118362500D03*
%TO.N,Net-(U_TC4056A1-CHRG)*%
X138850000Y-83125000D03*
X163700000Y-119356348D03*
%TO.N,Net-(U_TC4056A1-STDBY)*%
X163678652Y-118065000D03*
X137400000Y-82202767D03*
%TO.N,CS_sdcard*%
X145300000Y-96400000D03*
X152500000Y-109600000D03*
%TO.N,CD*%
X157300000Y-109700000D03*
X145200000Y-87600000D03*
%TO.N,Boot Mode Select*%
X132725000Y-83550000D03*
X158100000Y-109600000D03*
%TO.N,CS \u00C9cran*%
X147800000Y-84900000D03*
X150100000Y-108800000D03*
%TO.N,SW-reset*%
X129615472Y-84755913D03*
X146500000Y-107300000D03*
%TO.N,Net-(LED2-K)*%
X137950000Y-79600000D03*
X138850000Y-84800000D03*
%TO.N,SW-1*%
X160000000Y-104700000D03*
X157300000Y-114200000D03*
%TO.N,Net-(LED3-K)*%
X134900000Y-80215000D03*
X137350000Y-84750000D03*
%TO.N,Net-(Q1-S)*%
X166150000Y-89950000D03*
X171050000Y-93550000D03*
%TO.N,\u00C9cran D{slash}C*%
X149300000Y-107200000D03*
%TO.N,Net-(U2-CD)*%
X142087500Y-87550000D03*
%TO.N,Net-(U3-RES)*%
X144900000Y-106500000D03*
X150400000Y-106400000D03*
%TO.N,Net-(U3-CS)*%
X143900000Y-83700000D03*
%TO.N,3v3*%
X134612500Y-116387500D03*
X137900000Y-119200000D03*
%TD*%
D10*
%TO.N,GND*%
X173578652Y-115070000D02*
X173578652Y-114308848D01*
X168260000Y-118065000D02*
X169121348Y-118065000D01*
X168025000Y-118300000D02*
X168260000Y-118065000D01*
X160975000Y-113275000D02*
X160675000Y-113275000D01*
X169121348Y-120605000D02*
X168780000Y-120605000D01*
X160725000Y-115800000D02*
X164725000Y-115800000D01*
X166775000Y-103150000D02*
X167195000Y-102730000D01*
X161003652Y-121221348D02*
X161003652Y-120262500D01*
X167195000Y-102730000D02*
X168485000Y-102730000D01*
X160625000Y-113225000D02*
X160353652Y-113496348D01*
X167910000Y-103850000D02*
X167475000Y-103850000D01*
X135625000Y-120775000D02*
X135625000Y-119795000D01*
X173578652Y-114308848D02*
X174287500Y-113600000D01*
X135625000Y-117825000D02*
X135625000Y-118805000D01*
X160353652Y-113496348D02*
X160353652Y-114537500D01*
X135625000Y-118805000D02*
X135685000Y-118865000D01*
X160353652Y-120262500D02*
X160353652Y-121296348D01*
X135625000Y-119795000D02*
X135685000Y-119735000D01*
X160353652Y-121296348D02*
X160175000Y-121475000D01*
X168025000Y-119850000D02*
X168025000Y-118300000D01*
X164725000Y-115800000D02*
X164725000Y-115200000D01*
X161003652Y-114537500D02*
X161003652Y-113303652D01*
X160675000Y-113275000D02*
X160625000Y-113225000D01*
X160353652Y-114537500D02*
X160353652Y-115428652D01*
X161003652Y-113303652D02*
X160975000Y-113275000D01*
X168780000Y-120605000D02*
X168025000Y-119850000D01*
X167475000Y-103850000D02*
X166775000Y-103150000D01*
X160750000Y-121475000D02*
X161003652Y-121221348D01*
X160353652Y-115428652D02*
X160725000Y-115800000D01*
X160175000Y-121475000D02*
X160750000Y-121475000D01*
%TO.N,OUT+*%
X141600000Y-106400000D02*
X141575000Y-106425000D01*
D68*
X158750000Y-112200000D02*
X160100000Y-112200000D01*
D10*
X168100000Y-122600000D02*
X170800000Y-125300000D01*
X141575000Y-106425000D02*
X139500000Y-106425000D01*
D68*
X160100000Y-116900000D02*
X158750000Y-115550000D01*
X161900000Y-110400000D02*
X161900000Y-109100000D01*
X163700000Y-116900000D02*
X160100000Y-116900000D01*
X160100000Y-112200000D02*
X161900000Y-110400000D01*
X169000000Y-123500000D02*
X168100000Y-122600000D01*
X170800000Y-125300000D02*
X170800000Y-124800000D01*
D10*
X169249000Y-123749000D02*
X170800000Y-125300000D01*
D68*
X169850000Y-123150000D02*
X169850000Y-122300000D01*
X169500000Y-123500000D02*
X169850000Y-123150000D01*
D10*
X163678652Y-116795000D02*
X163230203Y-116795000D01*
D68*
X170800000Y-124800000D02*
X169500000Y-123500000D01*
X158750000Y-115550000D02*
X158750000Y-112200000D01*
X169500000Y-123500000D02*
X169000000Y-123500000D01*
D10*
%TO.N,VCCfhd*%
X173450000Y-120861152D02*
X173678652Y-120632500D01*
X173300000Y-122525000D02*
X173450000Y-122375000D01*
X173450000Y-122375000D02*
X173450000Y-120861152D01*
X171500000Y-122300000D02*
X173075000Y-122300000D01*
X173075000Y-122300000D02*
X173300000Y-122525000D01*
%TO.N,+5V*%
X165800000Y-101987500D02*
X165800000Y-99900000D01*
D68*
X163678652Y-120605000D02*
X164323652Y-121250000D01*
X164323652Y-121250000D02*
X166050000Y-121250000D01*
D10*
X137200000Y-80900000D02*
X135185000Y-80900000D01*
X169121348Y-116795000D02*
X169121348Y-115777304D01*
X143900000Y-119750000D02*
X143900000Y-123075001D01*
X137535000Y-81235000D02*
X137950000Y-81235000D01*
D68*
X169700000Y-116216348D02*
X169121348Y-116795000D01*
D69*
X165750000Y-102050000D02*
X165800000Y-102000000D01*
D10*
X169121348Y-115777304D02*
X169703652Y-115195000D01*
X135185000Y-80900000D02*
X134900000Y-81185000D01*
D68*
X169700000Y-115200000D02*
X169700000Y-116216348D01*
D10*
X168672899Y-116795000D02*
X169121348Y-116795000D01*
X137200000Y-80900000D02*
X137535000Y-81235000D01*
X163678652Y-120605000D02*
X164157652Y-121084000D01*
X143900000Y-123075001D02*
X143924999Y-123100000D01*
D69*
X165800000Y-102000000D02*
X165800000Y-101987500D01*
D68*
%TO.N,Vout3v3*%
X156624999Y-83975001D02*
X150300000Y-90300000D01*
X145550000Y-90300000D02*
X143625000Y-92225000D01*
D10*
X168300000Y-82360000D02*
X168249000Y-82309000D01*
D68*
X143625000Y-92225000D02*
X143625000Y-93100000D01*
D10*
X168249000Y-82411000D02*
X168300000Y-82360000D01*
D68*
X146400000Y-100675000D02*
X145775000Y-100675000D01*
D10*
X144975000Y-103700000D02*
X146475000Y-102200000D01*
D68*
X139850000Y-92100000D02*
X139850000Y-87000000D01*
D69*
X141384999Y-81300000D02*
X141384999Y-80865001D01*
D68*
X142100000Y-93050000D02*
X143575000Y-93050000D01*
X141975000Y-83800000D02*
X141975000Y-81890001D01*
X140375000Y-84975000D02*
X141375000Y-84975000D01*
D69*
X142087500Y-93050000D02*
X140800000Y-93050000D01*
D10*
X142087500Y-93050000D02*
X142100000Y-93050000D01*
X146400000Y-100675000D02*
X146400000Y-102125000D01*
X144600000Y-98875000D02*
X144600000Y-98400000D01*
X139550000Y-85800000D02*
X139850000Y-85500000D01*
D68*
X139850000Y-87000000D02*
X139850000Y-85500000D01*
D10*
X148100002Y-102200000D02*
X148200002Y-102300000D01*
X168300000Y-82400000D02*
X168300000Y-82562000D01*
D68*
X139850000Y-85500000D02*
X140100000Y-85250000D01*
D10*
X172677215Y-82360000D02*
X172800000Y-82360000D01*
X136150000Y-85800000D02*
X139550000Y-85800000D01*
D68*
X144450000Y-99350000D02*
X144450000Y-98750000D01*
D10*
X144875000Y-103700000D02*
X144975000Y-103700000D01*
D68*
X140800000Y-93050000D02*
X139850000Y-92100000D01*
D69*
X142087500Y-93050000D02*
X143575000Y-93050000D01*
D68*
X156624999Y-81300000D02*
X156624999Y-83975001D01*
D10*
X146475000Y-102200000D02*
X148100002Y-102200000D01*
D68*
X144450000Y-98750000D02*
X144600000Y-98600000D01*
D10*
X142100000Y-93050000D02*
X141435500Y-93050000D01*
D68*
X141975000Y-84375000D02*
X141975000Y-83800000D01*
D69*
X143575000Y-93050000D02*
X143625000Y-93100000D01*
D68*
X150300000Y-90300000D02*
X145550000Y-90300000D01*
D10*
X168300000Y-82360000D02*
X168300000Y-82400000D01*
X134225000Y-82900000D02*
X134225000Y-83875000D01*
X146400000Y-102125000D02*
X146475000Y-102200000D01*
D68*
X140100000Y-85250000D02*
X140375000Y-84975000D01*
X145775000Y-100675000D02*
X144450000Y-99350000D01*
X141375000Y-84975000D02*
X141975000Y-84375000D01*
X141975000Y-81890001D02*
X141384999Y-81300000D01*
D10*
X146400000Y-100675000D02*
X144600000Y-98875000D01*
D68*
X142100000Y-93050000D02*
X140800000Y-93050000D01*
D10*
X134225000Y-83875000D02*
X136150000Y-85800000D01*
%TO.N,TENSION*%
X141750000Y-104700000D02*
X141675000Y-104775000D01*
X148200002Y-104700000D02*
X141750000Y-104700000D01*
X138025000Y-106250000D02*
X137975000Y-106300000D01*
X141675000Y-104775000D02*
X139500000Y-104775000D01*
X139475000Y-104800000D02*
X139500000Y-104775000D01*
X138025000Y-104800000D02*
X138025000Y-106250000D01*
X138025000Y-104800000D02*
X139475000Y-104800000D01*
D68*
%TO.N,Vin*%
X164400000Y-93400000D02*
X163800000Y-92800000D01*
X167675000Y-92000000D02*
X167775000Y-92100000D01*
X167800000Y-92100000D02*
X167800000Y-92150000D01*
X163800000Y-92800000D02*
X163800000Y-90450000D01*
D10*
X167675000Y-90500000D02*
X167525000Y-90500000D01*
D68*
X169100000Y-94250000D02*
X167775000Y-92925000D01*
X167800000Y-92150000D02*
X166550000Y-93400000D01*
X167675000Y-90500000D02*
X167675000Y-92000000D01*
X166550000Y-93400000D02*
X164400000Y-93400000D01*
X163800000Y-90450000D02*
X164250000Y-90000000D01*
X167775000Y-92925000D02*
X167775000Y-92100000D01*
X169100000Y-99900000D02*
X169100000Y-94250000D01*
D10*
X134900000Y-123200000D02*
X134875000Y-123225000D01*
%TO.N,Net-(U_polux1-VAUX)*%
X136150000Y-117800000D02*
X136125000Y-117825000D01*
X136700000Y-117800000D02*
X136150000Y-117800000D01*
%TO.N,Net-(U_polux1-FB)*%
X136100000Y-116375000D02*
X136550000Y-116375000D01*
X136550000Y-116375000D02*
X137875000Y-117700000D01*
X136100000Y-116375000D02*
X135908000Y-116375000D01*
X137875000Y-117700000D02*
X139275000Y-116300000D01*
X135908000Y-116375000D02*
X135125000Y-117158000D01*
X135125000Y-117158000D02*
X135125000Y-117540000D01*
X139275000Y-116300000D02*
X140100000Y-116300000D01*
%TO.N,Net-(C3-Pad1)*%
X127400000Y-83200000D02*
X127400000Y-84125000D01*
X127400000Y-84125000D02*
X127975000Y-84700000D01*
X127950000Y-84725000D02*
X127975000Y-84700000D01*
X126500000Y-84725000D02*
X127950000Y-84725000D01*
%TO.N,SPI MOSI*%
X151544999Y-123100000D02*
X151700000Y-123100000D01*
X154900001Y-110750998D02*
X154825999Y-110825000D01*
X151400000Y-123100000D02*
X151200000Y-123300000D01*
X154900001Y-109600000D02*
X154900001Y-110750998D01*
X151544999Y-123100000D02*
X151400000Y-123100000D01*
X154825999Y-110825000D02*
X154700000Y-110699001D01*
%TO.N,SPI MISO*%
X149200000Y-123100000D02*
X149300000Y-123200000D01*
X142087500Y-89750000D02*
X142150000Y-89687500D01*
X149004999Y-123100000D02*
X149200000Y-123100000D01*
X156500000Y-110400000D02*
X156500000Y-109600000D01*
%TO.N,SPI SCK*%
X146464999Y-123100000D02*
X146300000Y-123100000D01*
X146300000Y-123100000D02*
X146100000Y-123300000D01*
%TO.N,CS Console*%
X154500000Y-123100000D02*
X154084999Y-123100000D01*
X154084999Y-123100000D02*
X154084999Y-123115001D01*
X154084999Y-122915001D02*
X154100000Y-122900000D01*
X154100000Y-108900000D02*
X154100000Y-109600000D01*
X154084999Y-123184999D02*
X154200000Y-123300000D01*
X154084999Y-123100000D02*
X154084999Y-123184999D01*
X154084999Y-123100000D02*
X154400000Y-123100000D01*
X154400000Y-123100000D02*
X154500000Y-123000000D01*
X154500000Y-123100000D02*
X154700000Y-122900000D01*
X154084999Y-123100000D02*
X154084999Y-122915001D01*
X154084999Y-123115001D02*
X153800000Y-123400000D01*
%TO.N,Net-(BMS1-B)*%
X131950000Y-82675000D02*
X131075000Y-83550000D01*
X131950000Y-80300000D02*
X131950000Y-82675000D01*
%TO.N,LEDrgb*%
X162400000Y-84550000D02*
X161550000Y-83700000D01*
X162400000Y-87050000D02*
X162400000Y-84550000D01*
X161850000Y-80500000D02*
X162635000Y-80500000D01*
X161550000Y-80800000D02*
X161850000Y-80500000D01*
X161550000Y-83700000D02*
X161550000Y-80800000D01*
%TO.N,Net-(LED_RGB1-VDD)*%
X164375000Y-83250000D02*
X164285000Y-83250000D01*
X164285000Y-83250000D02*
X162635000Y-81600000D01*
%TO.N,Net-(Q3-G2)*%
X174628652Y-118357500D02*
X174628652Y-119019999D01*
X161653652Y-114537500D02*
X165637500Y-114537500D01*
X165637500Y-114537500D02*
X167500000Y-116400000D01*
%TO.N,Net-(Q3-G1)*%
X163000000Y-122800000D02*
X161653652Y-121453652D01*
X163200000Y-122800000D02*
X163000000Y-122800000D01*
X161653652Y-121453652D02*
X161653652Y-120262500D01*
%TO.N,Net-(J1-CC1)*%
X166760000Y-108300000D02*
X167910000Y-108300000D01*
X166410000Y-108650000D02*
X166760000Y-108300000D01*
%TO.N,Net-(J1-CC2)*%
X166410000Y-105450000D02*
X166560000Y-105300000D01*
X166560000Y-105300000D02*
X167910000Y-105300000D01*
%TO.N,Net-(U_TC4056A1-PROG)*%
X169306348Y-119520000D02*
X169121348Y-119335000D01*
X170978652Y-119520000D02*
X169306348Y-119520000D01*
%TO.N,Net-(U_DW01A1-VM)*%
X173550000Y-116748652D02*
X173578652Y-116720000D01*
X173550000Y-118228848D02*
X173550000Y-116748652D01*
X173678652Y-118357500D02*
X173550000Y-118228848D01*
%TO.N,Net-(U_TC4056A1-CHRG)*%
X163700000Y-119400000D02*
X163700000Y-119356348D01*
X163700000Y-119356348D02*
X163678652Y-119335000D01*
%TO.N,Net-(U_TC4056A1-STDBY)*%
X137400000Y-82202767D02*
X137400000Y-83075000D01*
X137400000Y-83075000D02*
X137350000Y-83125000D01*
%TO.N,Net-(C18-Pad2)*%
X169252008Y-109251000D02*
X168109000Y-109251000D01*
X168484999Y-104650000D02*
X169252008Y-105417009D01*
X169252008Y-105417009D02*
X169252008Y-109251000D01*
X167910000Y-104650000D02*
X168484999Y-104650000D01*
D68*
X169550000Y-113600000D02*
X169550000Y-112850000D01*
D10*
X165800000Y-104112500D02*
X166337500Y-104650000D01*
D68*
X169550000Y-112850000D02*
X169700000Y-112850000D01*
D10*
X165975000Y-110000000D02*
X166525000Y-109450000D01*
X169836000Y-109834992D02*
X169252008Y-109251000D01*
X169550000Y-113600000D02*
X169836000Y-113314000D01*
X166337500Y-104650000D02*
X167910000Y-104650000D01*
D68*
X169700000Y-112850000D02*
X170550000Y-112000000D01*
D10*
X168109000Y-109251000D02*
X167910000Y-109450000D01*
D68*
X170550000Y-112000000D02*
X170550000Y-109984720D01*
X170550000Y-109984720D02*
X169732640Y-109167360D01*
D10*
X166525000Y-109450000D02*
X167910000Y-109450000D01*
%TO.N,GPIO2*%
X147299999Y-103899999D02*
X148200002Y-103899999D01*
X147100000Y-103700000D02*
X147299999Y-103899999D01*
X146525000Y-103700000D02*
X147100000Y-103700000D01*
%TO.N,Net-(LED1-+)*%
X171200000Y-113600000D02*
X172712500Y-113600000D01*
%TO.N,CS_sdcard*%
X145225000Y-95300000D02*
X145225000Y-96325000D01*
X145225000Y-96325000D02*
X145300000Y-96400000D01*
%TO.N,Net-(U_polux1-EN)*%
X135635000Y-122000000D02*
X135125000Y-121490000D01*
X135125000Y-121490000D02*
X135125000Y-120775000D01*
%TO.N,Net-(U_polux1-PG)*%
X137900000Y-120825000D02*
X137850000Y-120775000D01*
X137850000Y-120775000D02*
X136125000Y-120775000D01*
%TO.N,CS \u00C9cran*%
X143900000Y-85400000D02*
X144400000Y-84900000D01*
X150100000Y-108800000D02*
X150100000Y-109600000D01*
X144400000Y-84900000D02*
X147800000Y-84900000D01*
%TO.N,SW-reset*%
X148100001Y-106400000D02*
X148200002Y-106299999D01*
X146500000Y-106400000D02*
X148100001Y-106400000D01*
%TO.N,Net-(LED2-K)*%
X138850000Y-84775000D02*
X138850000Y-84400000D01*
X137950000Y-80265000D02*
X137950000Y-79600000D01*
%TO.N,SW-1*%
X157325000Y-114200000D02*
X157300000Y-114200000D01*
%TO.N,Net-(LED3-K)*%
X137350000Y-84775000D02*
X137025000Y-84775000D01*
%TO.N,Net-(Q1-S)*%
X171050000Y-92938500D02*
X171861500Y-92938500D01*
X169425000Y-92100000D02*
X170263500Y-92938500D01*
X171861500Y-92938500D02*
X172900000Y-91900000D01*
X171050000Y-92938500D02*
X171050000Y-93550000D01*
X174400000Y-92150000D02*
X173150000Y-92150000D01*
X173150000Y-92150000D02*
X172900000Y-91900000D01*
X170263500Y-92938500D02*
X171050000Y-92938500D01*
%TO.N,Net-(Q1-G)*%
X169600000Y-90500000D02*
X170271554Y-91171554D01*
X170271554Y-91171554D02*
X170360851Y-91260851D01*
X170360851Y-91260851D02*
X171000000Y-91900000D01*
X169325000Y-90500000D02*
X169600000Y-90500000D01*
%TO.N,Net-(R3-Pad2)*%
X155625000Y-114150000D02*
X155675000Y-114200000D01*
X153524999Y-114150000D02*
X155625000Y-114150000D01*
X147024999Y-114150000D02*
X153524999Y-114150000D01*
%TO.N,D+*%
X161249999Y-107150000D02*
X161475000Y-107150000D01*
X167301176Y-106300000D02*
X167910000Y-106300000D01*
X161475000Y-107150000D02*
X161700001Y-107150000D01*
X167032206Y-107325000D02*
X167032206Y-106568970D01*
X167485000Y-107300000D02*
X167910000Y-107300000D01*
X161801001Y-107049000D02*
X162557824Y-107049000D01*
X161700001Y-107150000D02*
X161801001Y-107049000D01*
X160174998Y-107275000D02*
X161124999Y-107275000D01*
X159999998Y-107100000D02*
X160174998Y-107275000D01*
X162776000Y-107267176D02*
X162776000Y-107275000D01*
X161124999Y-107275000D02*
X161249999Y-107150000D01*
X160049998Y-107150000D02*
X159999998Y-107100000D01*
X167460000Y-107325000D02*
X167485000Y-107300000D01*
X162557824Y-107049000D02*
X162776000Y-107267176D01*
X166982206Y-107275000D02*
X167032206Y-107325000D01*
X167032206Y-107325000D02*
X167460000Y-107325000D01*
X162776000Y-107275000D02*
X166982206Y-107275000D01*
X167032206Y-106568970D02*
X167301176Y-106300000D01*
%TO.N,\u00C9cran D{slash}C*%
X149300000Y-107200000D02*
X149299999Y-107200001D01*
X149299999Y-107200001D02*
X149299999Y-109600000D01*
%TO.N,D-*%
X162776000Y-107732824D02*
X162776000Y-107725000D01*
X162776000Y-107725000D02*
X166810000Y-107725000D01*
X159999998Y-107899999D02*
X160174997Y-107725000D01*
X161700001Y-107850000D02*
X161801001Y-107951000D01*
X161425001Y-107899999D02*
X161475000Y-107850000D01*
X167460000Y-107775000D02*
X167485000Y-107800000D01*
X168518824Y-106800000D02*
X167910000Y-106800000D01*
X167485000Y-107800000D02*
X167910000Y-107800000D01*
X161124999Y-107725000D02*
X161249999Y-107850000D01*
X162557824Y-107951000D02*
X162776000Y-107732824D01*
X161801001Y-107951000D02*
X162557824Y-107951000D01*
X166810000Y-107725000D02*
X166860000Y-107775000D01*
X160174997Y-107725000D02*
X161124999Y-107725000D01*
X161475000Y-107850000D02*
X161700001Y-107850000D01*
X168786000Y-107532824D02*
X168786000Y-107067176D01*
X167910000Y-107800000D02*
X168518824Y-107800000D01*
X168518824Y-107800000D02*
X168786000Y-107532824D01*
X161249999Y-107850000D02*
X161475000Y-107850000D01*
X168786000Y-107067176D02*
X168518824Y-106800000D01*
X166860000Y-107775000D02*
X167460000Y-107775000D01*
%TO.N,Net-(U2-CD)*%
X142087500Y-87550000D02*
X143525000Y-87550000D01*
X143525000Y-87550000D02*
X143575000Y-87600000D01*
%TO.N,Net-(U_polux1-L2)*%
X131065000Y-117800000D02*
X134100000Y-117800000D01*
X134100000Y-117800000D02*
X134125000Y-117825000D01*
X130900000Y-117635000D02*
X131065000Y-117800000D01*
%TO.N,Net-(U_polux1-L1)*%
X133500000Y-121165000D02*
X133735000Y-121165000D01*
X130900000Y-121165000D02*
X133500000Y-121165000D01*
X133735000Y-121165000D02*
X134125000Y-120775000D01*
D68*
%TO.N,3v3*%
X134525000Y-113400000D02*
X134100000Y-113400000D01*
X144300000Y-97400000D02*
X154800000Y-97400000D01*
D10*
X133100000Y-114700000D02*
X133225000Y-114700000D01*
X134600000Y-116375000D02*
X134600000Y-116200000D01*
D68*
X134600000Y-116375000D02*
X134100000Y-116375000D01*
D10*
X169900000Y-82260000D02*
X169800000Y-82360000D01*
D68*
X133275000Y-111900000D02*
X133075000Y-111700000D01*
D10*
X143400000Y-97700000D02*
X141600000Y-97700000D01*
X139525000Y-117700000D02*
X139375000Y-117700000D01*
D68*
X133100000Y-115375000D02*
X134100000Y-116375000D01*
X133100000Y-114400000D02*
X134100000Y-113400000D01*
X133075000Y-113200000D02*
X133100000Y-113225000D01*
X133275000Y-113400000D02*
X133075000Y-113200000D01*
X169300000Y-84200000D02*
X169800000Y-83700000D01*
X131200000Y-109400000D02*
X131200000Y-107800000D01*
X134525000Y-113400000D02*
X134500000Y-113400000D01*
X169800000Y-83700000D02*
X169800000Y-82360000D01*
X133075000Y-111275000D02*
X131200000Y-109400000D01*
X143800000Y-97300000D02*
X144200000Y-97300000D01*
D10*
X134600000Y-116200000D02*
X133100000Y-114700000D01*
X134612500Y-116387500D02*
X134600000Y-116375000D01*
X134625000Y-117825000D02*
X134625000Y-116400000D01*
X134625000Y-116400000D02*
X134612500Y-116387500D01*
D68*
X154800000Y-97400000D02*
X168000000Y-84200000D01*
X134100000Y-113400000D02*
X133275000Y-113400000D01*
X134100000Y-116375000D02*
X134400000Y-116675000D01*
X133700000Y-112600000D02*
X133700000Y-112325000D01*
X133700000Y-112325000D02*
X133075000Y-111700000D01*
X141300000Y-97700000D02*
X143400000Y-97700000D01*
X133100000Y-114700000D02*
X133100000Y-116175000D01*
X133250000Y-116375000D02*
X134100000Y-116375000D01*
X134500000Y-113400000D02*
X133700000Y-112600000D01*
X133100000Y-116175000D02*
X133075000Y-116200000D01*
X133100000Y-113225000D02*
X133100000Y-114700000D01*
X133100000Y-114700000D02*
X133100000Y-114400000D01*
X133100000Y-114700000D02*
X133100000Y-115375000D01*
X133075000Y-111700000D02*
X133075000Y-111275000D01*
X143400000Y-97700000D02*
X143800000Y-97300000D01*
X134525000Y-113400000D02*
X134525000Y-111900000D01*
X168000000Y-84200000D02*
X169300000Y-84200000D01*
X134525000Y-111900000D02*
X133275000Y-111900000D01*
D10*
X139375000Y-117700000D02*
X137900000Y-119175000D01*
D68*
X144200000Y-97300000D02*
X144300000Y-97400000D01*
X134400000Y-116675000D02*
X134400000Y-116700000D01*
X133075000Y-116200000D02*
X133250000Y-116375000D01*
X133075000Y-111700000D02*
X133075000Y-113200000D01*
X131200000Y-107800000D02*
X141300000Y-97700000D01*
D70*
X134525000Y-111900000D02*
X134525000Y-111725000D01*
D10*
%TO.N,Net-(R18-Pad1)*%
X142087500Y-95212500D02*
X142100000Y-95200000D01*
X142087500Y-95250000D02*
X142087500Y-95212500D01*
X142200000Y-95300000D02*
X143575000Y-95300000D01*
X142100000Y-95200000D02*
X142200000Y-95300000D01*
%TD*%
M02*
